<svg width="45" height="45" viewBox="0 0 45 45" fill="none" xmlns="http://www.w3.org/2000/svg">
<g clip-path="url(#clip0_11_171)">
<path d="M19.4562 -0.0354729C19.5291 -0.0360761 19.602 -0.0366793 19.6772 -0.0373008C19.9177 -0.0389059 20.1581 -0.0385692 20.3986 -0.0380692C20.5662 -0.0384702 20.7337 -0.0389365 20.9013 -0.0394653C21.2523 -0.0402502 21.6033 -0.0400374 21.9543 -0.0391636C22.4037 -0.0381539 22.853 -0.0399301 23.3023 -0.0424961C23.6483 -0.0441103 23.9943 -0.0440842 24.3403 -0.0435827C24.506 -0.0435692 24.6716 -0.0441002 24.8372 -0.0451903C25.0691 -0.0465012 25.3008 -0.0455621 25.5326 -0.0440559C25.6007 -0.0449057 25.6688 -0.0457554 25.739 -0.0466309C26.1958 -0.040431 26.4547 0.0632028 26.8067 0.351602C27.1632 0.81062 27.1384 1.28794 27.0704 1.84574C26.8788 2.2503 26.6765 2.44083 26.2794 2.63676C26.0036 2.66669 26.0036 2.66669 25.6981 2.66251C25.5885 2.66166 25.4789 2.66081 25.366 2.65993C25.2523 2.65772 25.1386 2.65551 25.0214 2.65324C24.8484 2.65145 24.8484 2.65145 24.6718 2.64963C24.3873 2.64653 24.1029 2.6418 23.8184 2.63676C23.8184 3.24584 23.8184 3.85492 23.8184 4.48246C23.9798 4.48971 24.1411 4.49696 24.3073 4.50443C27.8767 4.7671 31.3816 6.08524 34.2774 8.17387C34.3303 8.21181 34.3831 8.24975 34.4376 8.28884C35.1975 8.83983 35.8874 9.45757 36.5626 10.1075C36.6389 10.1802 36.6389 10.1802 36.7169 10.2545C37.4714 10.9762 38.1385 11.7299 38.7598 12.5684C38.8346 12.6668 38.9093 12.7652 38.984 12.8637C39.5779 13.6579 40.0601 14.5023 40.5177 15.3809C40.5678 15.4754 40.5678 15.4754 40.6189 15.5718C41.5672 17.3783 42.2492 19.4249 42.5391 21.4454C42.5543 21.5438 42.5694 21.6422 42.585 21.7437C42.7237 22.7236 42.7499 23.6921 42.7479 24.6808C42.7479 24.7635 42.7478 24.8462 42.7478 24.9314C42.7434 26.9034 42.5031 28.7842 41.9239 30.6739C41.8944 30.7721 41.8944 30.7721 41.8642 30.8723C40.9881 33.7511 39.464 36.2619 37.4405 38.4776C37.3012 38.6324 37.1696 38.7889 37.0405 38.9521C36.8158 39.2113 36.5775 39.4265 36.3164 39.648C36.1877 39.7588 36.0616 39.8726 35.9381 39.9892C34.4844 41.3578 32.7406 42.4029 30.9376 43.2422C30.8746 43.2716 30.8117 43.3009 30.7469 43.3311C28.5092 44.3585 26.0148 44.9972 23.5445 45.021C23.4701 45.0218 23.3957 45.0227 23.319 45.0236C21.6098 45.0393 19.9596 45.011 18.2813 44.6485C18.1502 44.6202 18.1502 44.6202 18.0165 44.5914C16.7738 44.3134 15.5871 43.9111 14.4141 43.418C14.3496 43.3911 14.2852 43.3642 14.2187 43.3364C12.2871 42.516 10.5859 41.2935 9.00694 39.9268C8.88867 39.8246 8.76976 39.723 8.65078 39.6215C8.27985 39.3004 7.94502 38.9684 7.62871 38.5933C7.45716 38.3923 7.27743 38.2005 7.09725 38.0072C4.73641 35.3783 3.25088 32.0002 2.54891 28.5645C2.53426 28.4954 2.51962 28.4263 2.50453 28.3552C1.99761 25.852 2.09915 22.9655 2.6368 20.4786C2.65325 20.4022 2.66971 20.3259 2.68666 20.2472C2.79579 19.7608 2.92826 19.2845 3.07625 18.8086C3.09693 18.7407 3.1176 18.6728 3.13891 18.6029C3.59648 17.126 4.20403 15.5534 5.12481 14.3023C5.20596 14.1472 5.20596 14.1472 5.12569 13.9728C5.00926 13.798 4.89135 13.6642 4.73896 13.5201C4.686 13.4689 4.63303 13.4177 4.57846 13.3649C4.4681 13.2599 4.35756 13.155 4.24681 13.0504C3.48027 12.3075 3.14095 11.5685 3.07385 10.4985C3.08467 9.13288 3.85041 8.31339 4.74617 7.38285C4.79629 7.33034 4.84641 7.27783 4.89805 7.22372C5.86096 6.2189 6.73999 5.36796 8.1921 5.27382C9.43193 5.27209 10.26 5.90092 11.1146 6.72844C11.3569 6.95568 11.6112 7.16898 11.8653 7.38285C11.9275 7.34926 11.9898 7.31567 12.0539 7.28106C13.3649 6.57709 14.6658 5.91432 16.0841 5.44926C16.1585 5.42484 16.2329 5.40043 16.3096 5.37527C17.8924 4.86798 19.5207 4.55712 21.1817 4.48246C21.1817 3.87338 21.1817 3.2643 21.1817 2.63676C20.9244 2.64288 20.9244 2.64288 20.6619 2.64912C20.436 2.65242 20.2101 2.65562 19.9842 2.65873C19.8148 2.66315 19.8148 2.66315 19.6419 2.66766C18.7042 2.67737 18.7042 2.67737 18.3946 2.48707C18.0268 2.11799 17.892 1.84789 17.8913 1.32389C17.9035 0.871982 17.9607 0.601672 18.2813 0.263711C18.6574 -0.024667 18.9986 -0.0381244 19.4562 -0.0354729Z" fill="#96D0D8"/>
<path d="M19.4562 -0.0354729C19.5291 -0.0360761 19.602 -0.0366793 19.6772 -0.0373008C19.9177 -0.0389059 20.1581 -0.0385692 20.3986 -0.0380692C20.5662 -0.0384702 20.7337 -0.0389365 20.9013 -0.0394653C21.2523 -0.0402502 21.6033 -0.0400374 21.9543 -0.0391636C22.4037 -0.0381539 22.853 -0.0399301 23.3023 -0.0424961C23.6483 -0.0441103 23.9943 -0.0440842 24.3403 -0.0435827C24.506 -0.0435692 24.6716 -0.0441002 24.8372 -0.0451903C25.0691 -0.0465012 25.3008 -0.0455621 25.5326 -0.0440559C25.6007 -0.0449057 25.6688 -0.0457554 25.739 -0.0466309C26.1958 -0.040431 26.4547 0.0632028 26.8067 0.351602C27.1632 0.81062 27.1384 1.28794 27.0704 1.84574C26.8788 2.2503 26.6765 2.44083 26.2794 2.63676C26.0036 2.66669 26.0036 2.66669 25.6981 2.66251C25.5885 2.66166 25.4789 2.66081 25.366 2.65993C25.2523 2.65772 25.1386 2.65551 25.0214 2.65324C24.8484 2.65145 24.8484 2.65145 24.6718 2.64963C24.3873 2.64653 24.1029 2.6418 23.8184 2.63676C23.8184 3.24584 23.8184 3.85492 23.8184 4.48246C23.9798 4.48971 24.1411 4.49696 24.3073 4.50443C27.8767 4.7671 31.3816 6.08524 34.2774 8.17387C34.3303 8.21181 34.3831 8.24975 34.4376 8.28884C35.1975 8.83983 35.8874 9.45757 36.5626 10.1075C36.6389 10.1802 36.6389 10.1802 36.7169 10.2545C37.4714 10.9762 38.1385 11.7299 38.7598 12.5684C38.8346 12.6668 38.9093 12.7652 38.984 12.8637C39.5779 13.6579 40.0601 14.5023 40.5177 15.3809C40.5678 15.4754 40.5678 15.4754 40.6189 15.5718C41.5672 17.3783 42.2492 19.4249 42.5391 21.4454C42.5543 21.5438 42.5694 21.6422 42.585 21.7437C42.7237 22.7236 42.7499 23.6921 42.7479 24.6808C42.7479 24.7635 42.7478 24.8462 42.7478 24.9314C42.7434 26.9034 42.5031 28.7842 41.9239 30.6739C41.8944 30.7721 41.8944 30.7721 41.8642 30.8723C40.9881 33.7511 39.464 36.2619 37.4405 38.4776C37.3012 38.6324 37.1696 38.7889 37.0405 38.9521C36.8158 39.2113 36.5775 39.4265 36.3164 39.648C36.1877 39.7588 36.0616 39.8726 35.9381 39.9892C34.4844 41.3578 32.7406 42.4029 30.9376 43.2422C30.8746 43.2716 30.8117 43.3009 30.7469 43.3311C28.5092 44.3585 26.0148 44.9972 23.5445 45.021C23.4701 45.0218 23.3957 45.0227 23.319 45.0236C21.6098 45.0393 19.9596 45.011 18.2813 44.6485C18.1502 44.6202 18.1502 44.6202 18.0165 44.5914C16.7738 44.3134 15.5871 43.9111 14.4141 43.418C14.3496 43.3911 14.2852 43.3642 14.2187 43.3364C12.2871 42.516 10.5859 41.2935 9.00694 39.9268C8.88867 39.8246 8.76976 39.723 8.65078 39.6215C8.27985 39.3004 7.94502 38.9684 7.62871 38.5933C7.45716 38.3923 7.27743 38.2005 7.09725 38.0072C4.73641 35.3783 3.25088 32.0002 2.54891 28.5645C2.53426 28.4954 2.51962 28.4263 2.50453 28.3552C1.99761 25.852 2.09915 22.9655 2.6368 20.4786C2.65325 20.4022 2.66971 20.3259 2.68666 20.2472C2.79579 19.7608 2.92826 19.2845 3.07625 18.8086C3.09693 18.7407 3.1176 18.6728 3.13891 18.6029C3.59648 17.126 4.20403 15.5534 5.12481 14.3023C5.20596 14.1472 5.20596 14.1472 5.12569 13.9728C5.00926 13.798 4.89135 13.6642 4.73896 13.5201C4.686 13.4689 4.63303 13.4177 4.57846 13.3649C4.4681 13.2599 4.35756 13.155 4.24681 13.0504C3.48027 12.3075 3.14095 11.5685 3.07385 10.4985C3.08467 9.13288 3.85041 8.31339 4.74617 7.38285C4.79629 7.33034 4.84641 7.27783 4.89805 7.22372C5.86096 6.2189 6.73999 5.36796 8.1921 5.27382C9.43193 5.27209 10.26 5.90092 11.1146 6.72844C11.3569 6.95568 11.6112 7.16898 11.8653 7.38285C11.9275 7.34926 11.9898 7.31567 12.0539 7.28106C13.3649 6.57709 14.6658 5.91432 16.0841 5.44926C16.1585 5.42484 16.2329 5.40043 16.3096 5.37527C17.8924 4.86798 19.5207 4.55712 21.1817 4.48246C21.1817 3.87338 21.1817 3.2643 21.1817 2.63676C20.9244 2.64288 20.9244 2.64288 20.6619 2.64912C20.436 2.65242 20.2101 2.65562 19.9842 2.65873C19.8148 2.66315 19.8148 2.66315 19.6419 2.66766C18.7042 2.67737 18.7042 2.67737 18.3946 2.48707C18.0268 2.11799 17.892 1.84789 17.8913 1.32389C17.9035 0.871982 17.9607 0.601672 18.2813 0.263711C18.6574 -0.024667 18.9986 -0.0381244 19.4562 -0.0354729ZM11.4335 14.2818C9.09122 16.7106 7.51788 20.0796 7.38289 23.4668C7.44935 23.4681 7.51582 23.4694 7.58429 23.4707C7.88708 23.4773 8.18978 23.4858 8.49251 23.4943C8.64937 23.4973 8.64937 23.4973 8.8094 23.5003C9.78078 23.5302 9.78078 23.5302 10.1954 23.8184C10.4985 24.1518 10.4995 24.4914 10.4834 24.9229C10.4487 25.228 10.3783 25.4163 10.1954 25.6641C9.6419 26.0808 9.11963 26.0731 8.44307 26.0816C8.34105 26.0842 8.23902 26.0868 8.13391 26.0895C7.88356 26.0957 7.63329 26.1003 7.38289 26.1036C7.43962 26.8868 7.54778 27.6252 7.73445 28.3887C7.75779 28.4843 7.78113 28.58 7.80518 28.6785C8.4662 31.1705 9.73428 33.5396 11.6016 35.3321C12.0411 35.7715 12.0411 35.7715 12.1685 35.9143C14.3527 38.2704 18.0098 39.764 21.1817 39.9024C21.183 39.8355 21.1843 39.7685 21.1856 39.6996C21.1922 39.3954 21.2007 39.0914 21.2092 38.7873C21.2122 38.6293 21.2122 38.6293 21.2152 38.4682C21.2183 38.3665 21.2214 38.2648 21.2246 38.16C21.2269 38.0666 21.2292 37.9732 21.2316 37.8769C21.2741 37.5869 21.3741 37.4205 21.5333 37.1778C21.5333 37.1198 21.5333 37.0618 21.5333 37.002C21.6366 36.9612 21.6366 36.9612 21.742 36.9196C21.966 36.8325 21.966 36.8325 22.1485 36.7383C22.6331 36.7065 22.8849 36.7152 23.2911 37.002C23.3491 37.002 23.4071 37.002 23.4669 37.002C23.4941 37.0709 23.5213 37.1398 23.5493 37.2107C23.6364 37.4347 23.6364 37.4347 23.7305 37.6172C23.7441 37.7893 23.7525 37.9618 23.7584 38.1343C23.7639 38.2881 23.7639 38.2881 23.7695 38.445C23.773 38.5525 23.7764 38.66 23.78 38.7708C23.7838 38.879 23.7876 38.9872 23.7915 39.0987C23.8008 39.3666 23.8098 39.6345 23.8184 39.9024C26.6861 39.6736 29.4666 38.605 31.7286 36.8262C31.8087 36.7655 31.8888 36.7048 31.9713 36.6422C33.6962 35.2925 35.0473 33.5902 36.0352 31.6407C36.0634 31.5854 36.0916 31.5302 36.1206 31.4733C36.5237 30.6726 36.8281 29.862 37.0899 29.0039C37.1226 28.9006 37.1552 28.7973 37.1888 28.6908C37.4456 27.8449 37.6244 26.9907 37.6173 26.1036C37.5223 26.1023 37.5223 26.1023 37.4253 26.1011C37.1359 26.0963 36.8465 26.089 36.5571 26.0816C36.4574 26.0803 36.3578 26.0791 36.2551 26.0778C35.6694 26.0607 35.278 26.0204 34.8048 25.6641C34.4866 25.2331 34.478 24.7745 34.5411 24.2579C34.6939 23.8798 34.885 23.7356 35.2442 23.5547C35.5119 23.5167 35.5119 23.5167 35.8062 23.5098C35.9119 23.5066 36.0175 23.5035 36.1264 23.5003C36.2359 23.4983 36.3454 23.4963 36.4582 23.4943C36.5694 23.4913 36.6806 23.4883 36.7952 23.4852C37.0692 23.478 37.3432 23.4719 37.6173 23.4668C37.5161 21.6014 37.0248 19.872 36.211 18.1934C36.1446 18.0518 36.1446 18.0518 36.0768 17.9074C35.3603 16.4194 34.3534 15.1639 33.2227 13.9746C33.1684 13.9146 33.114 13.8546 33.0579 13.7927C30.8649 11.4528 27.4057 9.93926 24.2579 9.58012C24.1114 9.57898 23.9649 9.57881 23.8184 9.58012C23.8172 9.67912 23.8172 9.67912 23.8159 9.78012C23.8112 10.0816 23.8039 10.3829 23.7965 10.6842C23.7952 10.7881 23.794 10.8919 23.7927 10.9989C23.776 11.5939 23.745 12.0015 23.379 12.4805C22.9945 12.7514 22.6104 12.8235 22.1485 12.7442C21.8243 12.6298 21.5909 12.473 21.3877 12.1894C21.2082 11.6968 21.2191 11.2102 21.2092 10.6897C21.2062 10.5831 21.2032 10.4765 21.2001 10.3667C21.1929 10.1045 21.1868 9.84234 21.1817 9.58012C17.5092 9.53872 13.927 11.7655 11.4335 14.2818Z" fill="#FB6249"/>
<path d="M21.1816 9.58013C21.1825 9.64613 21.1833 9.71213 21.1841 9.78013C21.1889 10.0816 21.1962 10.3829 21.2036 10.6843C21.2049 10.7881 21.2061 10.8919 21.2074 10.9989C21.224 11.593 21.2533 12.0033 21.6211 12.4805C21.9191 12.6668 22.1579 12.7466 22.5 12.8321C22.5 14.3113 22.5 15.7905 22.5 17.3145C22.0649 17.532 22.0649 17.532 21.6211 17.754C21.3248 18.1474 21.3191 18.5411 21.3219 19.0186C21.3213 19.0907 21.3207 19.1628 21.3201 19.2371C21.3185 19.4742 21.3188 19.7113 21.3193 19.9485C21.3189 20.114 21.3184 20.2794 21.3179 20.4449C21.3171 20.7913 21.3173 21.1376 21.3182 21.4839C21.3192 21.9273 21.3174 22.3705 21.3149 22.8138C21.3133 23.1554 21.3133 23.497 21.3138 23.8385C21.3138 24.002 21.3133 24.1654 21.3122 24.3288C21.3109 24.5575 21.3118 24.786 21.3133 25.0147C21.312 25.1154 21.312 25.1154 21.3107 25.2181C21.317 25.6755 21.3968 25.9432 21.709 26.2793C21.97 26.3954 22.231 26.5114 22.5 26.6309C22.5 29.9374 22.5 33.2438 22.5 36.6504C21.7969 36.9141 21.7969 36.9141 21.5332 37.002C21.4304 37.215 21.4304 37.215 21.3574 37.4415C21.3284 37.4995 21.2994 37.5575 21.2695 37.6172C21.256 37.7893 21.2476 37.9618 21.2417 38.1343C21.2362 38.2881 21.2362 38.2881 21.2306 38.445C21.2271 38.5525 21.2236 38.66 21.2201 38.7708C21.2163 38.879 21.2125 38.9872 21.2086 39.0987C21.1992 39.3666 21.1903 39.6345 21.1816 39.9024C17.9101 39.7965 14.339 38.195 12.0764 35.8162C12.0357 35.7724 11.995 35.7287 11.9531 35.6836C11.8824 35.6129 11.8117 35.5422 11.7389 35.4694C11.6646 35.3951 11.5902 35.3208 11.5137 35.2442C11.4664 35.202 11.4192 35.1599 11.3705 35.1165C9.11092 33.022 7.65826 29.5771 7.3828 26.543C7.38191 26.3965 7.38177 26.25 7.3828 26.1036C7.47781 26.1023 7.47781 26.1023 7.57474 26.1011C7.86422 26.0963 8.15357 26.089 8.44298 26.0816C8.54263 26.0803 8.64227 26.0791 8.74494 26.0778C9.33068 26.0607 9.72203 26.0204 10.1953 25.6641C10.5138 25.2326 10.5212 24.7749 10.459 24.2579C10.3466 23.9643 10.2508 23.857 9.9948 23.679C9.50164 23.4915 9.01592 23.5042 8.49242 23.4943C8.38581 23.4913 8.2792 23.4883 8.16936 23.4852C7.90718 23.478 7.64503 23.4719 7.3828 23.4668C7.46283 20.7492 8.52215 18.0967 10.1074 15.9083C10.1745 15.815 10.2416 15.7218 10.3107 15.6257C12.7418 12.3461 16.3906 10.2235 20.415 9.61927C20.6769 9.58794 20.9191 9.57691 21.1816 9.58013Z" fill="#F3F1E5"/>
<path d="M22.5001 4.48242C24.5439 4.48242 24.5439 4.48242 25.2137 4.58679C25.3327 4.60443 25.3327 4.60443 25.4542 4.62243C29.6057 5.26712 33.4935 7.08862 36.4981 10.0457C36.6481 10.193 36.7998 10.3383 36.9519 10.4834C37.623 11.1303 38.2042 11.8209 38.7598 12.5684C38.7971 12.6174 38.8343 12.6664 38.8727 12.7169C39.5108 13.5574 40.0306 14.4457 40.5176 15.3809C40.5511 15.4439 40.5845 15.5069 40.6189 15.5718C41.5671 17.3782 42.2492 19.4248 42.5391 21.4453C42.5543 21.5438 42.5694 21.6422 42.585 21.7436C42.7237 22.7235 42.7499 23.692 42.7479 24.6808C42.7479 24.7635 42.7478 24.8462 42.7478 24.9314C42.7434 26.9033 42.5031 28.7841 41.9239 30.6738C41.9042 30.7393 41.8845 30.8048 41.8642 30.8723C40.9881 33.7511 39.4639 36.2618 37.4404 38.4776C37.3012 38.6324 37.1695 38.7888 37.0405 38.952C36.8158 39.2113 36.5775 39.4264 36.3164 39.6479C36.1877 39.7588 36.0615 39.8726 35.9381 39.9892C34.4844 41.3578 32.7406 42.4029 30.9376 43.2422C30.8746 43.2715 30.8117 43.3009 30.7468 43.3311C28.1067 44.5432 25.3955 45 22.5001 45C22.5001 43.3468 22.5001 41.6936 22.5001 39.9902C22.065 39.9612 21.6299 39.9322 21.1817 39.9023C21.1722 39.5342 21.1652 39.1664 21.1597 38.7982C21.1568 38.6944 21.1538 38.5905 21.1508 38.4836C21.1441 37.881 21.1579 37.4846 21.5333 37.002C21.8071 36.7418 22.1256 36.6289 22.5001 36.6064C22.8746 36.6289 23.193 36.7418 23.4669 37.002C23.9053 37.5657 23.86 38.1055 23.8404 38.7982C23.8388 38.9044 23.8372 39.0107 23.8356 39.1201C23.8315 39.3809 23.8257 39.6416 23.8184 39.9023C26.7169 39.3349 29.3507 38.5567 31.7286 36.7383C31.8516 36.645 31.8516 36.645 31.9771 36.5498C33.6652 35.2196 34.9775 33.5544 35.9473 31.6406C35.9755 31.5854 36.0037 31.5301 36.0327 31.4732C36.4358 30.6725 36.7398 29.8619 37.002 29.0039C37.0336 28.9057 37.0652 28.8074 37.0978 28.7062C37.3608 27.8516 37.493 26.9867 37.6173 26.1035C37.5229 26.107 37.5229 26.107 37.4267 26.1105C37.1387 26.1197 36.8507 26.1254 36.5626 26.131C36.4142 26.1365 36.4142 26.1365 36.2628 26.1421C35.6355 26.1513 35.1932 26.0946 34.7169 25.6641C34.3997 25.2379 34.378 24.7713 34.4532 24.2578C34.6491 23.8587 34.849 23.6616 35.2442 23.4668C35.5119 23.4369 35.5119 23.4369 35.8062 23.441C35.9119 23.4419 36.0175 23.4427 36.1264 23.4436C36.2359 23.4458 36.3454 23.448 36.4582 23.4503C36.5694 23.4515 36.6806 23.4527 36.7952 23.4539C37.0692 23.457 37.3432 23.4614 37.6173 23.4668C37.5895 23.2994 37.5617 23.1319 37.5338 22.9645C37.5183 22.8713 37.5029 22.778 37.4869 22.682C36.9195 19.311 35.5037 16.4415 33.1348 13.9746C33.0882 13.9258 33.0416 13.877 32.9935 13.8267C32.6256 13.4489 32.2365 13.1175 31.8165 12.7991C31.7188 12.725 31.7188 12.725 31.6192 12.6495C29.547 11.1018 27.0754 10.0676 24.5137 9.70573C24.2798 9.6712 24.05 9.62734 23.8184 9.58008C23.8207 9.64562 23.823 9.71116 23.8254 9.77869C23.8346 10.0787 23.8403 10.3786 23.8459 10.6787C23.8496 10.7818 23.8533 10.8849 23.857 10.9911C23.866 11.6265 23.822 12.0883 23.379 12.5684C23.0417 12.8082 22.7423 12.8813 22.326 12.8622C21.8746 12.7854 21.6187 12.5903 21.341 12.2333C21.0798 11.7534 21.1447 11.2146 21.1597 10.6842C21.1613 10.578 21.1629 10.4718 21.1645 10.3623C21.1687 10.1016 21.175 9.84081 21.1817 9.58008C21.6168 9.55107 22.0518 9.52207 22.5001 9.49219C22.5001 7.83896 22.5001 6.18574 22.5001 4.48242Z" fill="#DD513C"/>
<path d="M11.25 6.8555C11.3107 6.91487 11.3714 6.97423 11.434 7.0354C11.5497 7.14998 11.6638 7.26615 11.7773 7.38284C11.6493 7.70883 11.5018 7.8169 11.2005 7.98709C8.9796 9.34868 7.22451 11.3491 5.74304 13.4575C5.61857 13.632 5.49056 13.8036 5.36129 13.9746C4.96334 13.7942 4.70486 13.5231 4.39999 13.2166C4.34657 13.1646 4.29315 13.1126 4.23811 13.059C3.48508 12.3068 3.14068 11.566 3.07373 10.4985C3.08456 9.13287 3.85029 8.31338 4.74606 7.38284C4.79618 7.33033 4.84629 7.27782 4.89793 7.22371C6.64972 5.39568 6.64972 5.39568 7.96951 5.27381C9.4113 5.27139 10.272 5.89437 11.25 6.8555Z" fill="#105B6D"/>
<path d="M23.1263 17.4133C23.4724 17.639 23.7192 17.907 23.9064 18.2812C23.9144 18.4625 23.9167 18.6441 23.9163 18.8256C23.9163 18.9399 23.9163 19.0543 23.9163 19.1721C23.9159 19.2974 23.9154 19.4228 23.9149 19.5481C23.9148 19.6759 23.9146 19.8037 23.9146 19.9316C23.9142 20.2682 23.9134 20.6049 23.9124 20.9415C23.9115 21.285 23.9111 21.6285 23.9106 21.9719C23.9097 22.646 23.9082 23.32 23.9064 23.9941C23.9724 23.9918 24.0384 23.9895 24.1064 23.9871C24.4077 23.9779 24.709 23.9722 25.0105 23.9666C25.1143 23.9629 25.2182 23.9593 25.3251 23.9555C25.9722 23.9464 26.3318 23.9799 26.8067 24.4335C27.0743 24.822 27.1494 25.2 27.0704 25.664C26.92 26.1053 26.7018 26.3252 26.2904 26.5545C25.9426 26.6966 25.5902 26.6808 25.2192 26.6775C25.1357 26.6778 25.0522 26.6782 24.9662 26.6785C24.7904 26.6788 24.6146 26.6781 24.4388 26.6766C24.1708 26.6748 23.9031 26.6766 23.6351 26.6789C23.4637 26.6786 23.2923 26.6782 23.1208 26.6775C23.0016 26.6786 23.0016 26.6786 22.88 26.6797C22.3569 26.672 22.0433 26.596 21.6212 26.2792C21.2815 25.8673 21.2186 25.535 21.2241 25.016C21.2235 24.9441 21.2229 24.8721 21.2223 24.798C21.2207 24.5612 21.2218 24.3246 21.2229 24.0878C21.2227 23.9225 21.2224 23.7573 21.2219 23.592C21.2214 23.246 21.2222 22.9001 21.2238 22.5541C21.2258 22.1116 21.2246 21.6691 21.2225 21.2266C21.2213 20.8854 21.2217 20.5442 21.2226 20.203C21.2228 20.0399 21.2225 19.8768 21.2217 19.7137C21.2208 19.4852 21.2222 19.2569 21.2241 19.0285C21.2234 18.9616 21.2227 18.8948 21.222 18.826C21.2296 18.3453 21.3516 18.0648 21.6212 17.666C22.0588 17.259 22.5719 17.2137 23.1263 17.4133Z" fill="#115D6E"/>
<path d="M22.5 3.62508e-05C23.0286 -0.00804833 23.5571 -0.0150437 24.0857 -0.0192757C24.2654 -0.0210403 24.4451 -0.0234369 24.6248 -0.0264854C24.8836 -0.0307646 25.1423 -0.0327476 25.4011 -0.034296C25.481 -0.0361105 25.561 -0.0379251 25.6433 -0.0397946C26.135 -0.0399672 26.4181 0.0202491 26.8066 0.351599C27.1632 0.810616 27.1383 1.28793 27.0703 1.84574C26.8796 2.24834 26.6812 2.45214 26.2793 2.63675C25.989 2.67238 25.7017 2.66745 25.4097 2.6625C25.3264 2.66213 25.2431 2.66176 25.1573 2.66137C24.8923 2.6599 24.6272 2.65659 24.3622 2.65323C24.1821 2.65191 24.002 2.65071 23.822 2.64963C23.3813 2.64695 22.9407 2.64179 22.5 2.63675C22.5 1.76664 22.5 0.896521 22.5 3.62508e-05Z" fill="#DE503B"/>
<path d="M23.0205 36.7084C23.4264 36.9088 23.6698 37.1838 23.8184 37.6172C23.86 38.012 23.8516 38.4017 23.8403 38.7982C23.8387 38.9044 23.8372 39.0106 23.8355 39.1201C23.8314 39.3809 23.8256 39.6416 23.8184 39.9023C23.3913 39.9716 22.9819 40.0021 22.5494 40.0012C22.4408 40.0014 22.3321 40.0017 22.2202 40.0019C21.8678 39.9896 21.5306 39.951 21.1816 39.9023C21.1714 39.5343 21.1652 39.1663 21.1597 38.7982C21.1567 38.6944 21.1538 38.5905 21.1507 38.4835C21.144 37.881 21.1578 37.4846 21.5332 37.0019C21.946 36.6098 22.4898 36.5261 23.0205 36.7084Z" fill="#125D6F"/>
<path d="M35.8062 23.4411C35.9118 23.4419 36.0175 23.4428 36.1263 23.4437C36.2906 23.447 36.2906 23.447 36.4581 23.4504C36.6249 23.4522 36.6249 23.4522 36.7951 23.454C37.0692 23.4571 37.3432 23.4614 37.6172 23.4668C37.7248 23.6821 37.7164 23.8238 37.7167 24.0642C37.7169 24.1907 37.7169 24.1907 37.7171 24.3197C37.7168 24.408 37.7164 24.4964 37.7161 24.5875C37.7166 24.718 37.7166 24.718 37.7171 24.8511C37.7165 25.2783 37.7071 25.6838 37.6172 26.1036C37.2657 26.1164 36.9142 26.1242 36.5625 26.131C36.4636 26.1347 36.3647 26.1384 36.2628 26.1422C35.6355 26.1514 35.1931 26.0947 34.7168 25.6641C34.3996 25.2379 34.378 24.7714 34.4531 24.2579C34.7536 23.6457 35.1352 23.4316 35.8062 23.4411Z" fill="#145E6F"/>
<path d="M7.38287 23.4668C7.75089 23.4565 8.11887 23.4503 8.48699 23.4448C8.64275 23.4404 8.64275 23.4404 8.80165 23.4359C9.40556 23.4291 9.79658 23.4479 10.2833 23.8184C10.5841 24.1483 10.5925 24.4876 10.5771 24.917C10.5132 25.382 10.3222 25.6548 9.94543 25.9435C9.47689 26.1994 8.96171 26.1408 8.44305 26.1255C8.34102 26.1239 8.239 26.1223 8.13388 26.1207C7.88347 26.1166 7.63321 26.1108 7.38287 26.1035C7.27465 25.5985 7.28198 25.1011 7.28399 24.5874C7.28365 24.499 7.28331 24.4107 7.28296 24.3196C7.28307 24.2353 7.28319 24.151 7.2833 24.0642C7.2834 23.9875 7.2835 23.9107 7.2836 23.8317C7.29498 23.6426 7.29498 23.6426 7.38287 23.4668Z" fill="#165F70"/>
<path d="M21.1816 9.58008C22.0518 9.58008 22.9219 9.58008 23.8184 9.58008C23.8274 9.94263 23.8365 10.3052 23.8458 10.6787C23.8518 10.8481 23.8518 10.8481 23.8579 11.0208C23.8655 11.6453 23.8136 12.0974 23.3789 12.5684C23.0417 12.8082 22.7423 12.8813 22.3259 12.8622C21.8745 12.7854 21.6186 12.5903 21.3409 12.2333C21.0798 11.7535 21.1447 11.2143 21.1597 10.6842C21.1669 10.3198 21.1742 9.95548 21.1816 9.58008Z" fill="#115D6E"/>
<path d="M21.1816 2.63672C22.0518 2.63672 22.9219 2.63672 23.8184 2.63672C23.8184 3.2458 23.8184 3.85488 23.8184 4.48242C22.9482 4.48242 22.0781 4.48242 21.1816 4.48242C21.1816 3.87334 21.1816 3.26426 21.1816 2.63672Z" fill="#26879C"/>
<path d="M18.5449 0.0878906C18.6029 0.116895 18.6609 0.145898 18.7207 0.175781C18.5177 0.378809 18.3146 0.581836 18.1055 0.791016C18.1055 0.527344 18.1055 0.527344 18.3252 0.291138C18.3977 0.224066 18.4702 0.156995 18.5449 0.0878906Z" fill="#F6533D"/>
</g>
<defs>
<clipPath id="clip0_11_171">
<rect width="45" height="45" fill="white"/>
</clipPath>
</defs>
</svg>
