<svg width="45" height="45" viewBox="0 0 45 45" fill="none" xmlns="http://www.w3.org/2000/svg">
<g clip-path="url(#clip0_10_138)">
<path d="M22.467 -0.0274984C22.5565 -0.027309 22.6459 -0.0271195 22.7381 -0.0269244C24.0221 -0.0225588 25.2818 -0.000507321 26.5429 0.263639C26.6286 0.281101 26.7143 0.298563 26.8026 0.316554C31.0549 1.20606 34.921 3.13232 38.0566 6.15231C38.1435 6.23565 38.1435 6.23565 38.2322 6.32067C39.0661 7.12438 39.8343 7.94153 40.5175 8.87692C40.593 8.97809 40.6684 9.07925 40.7438 9.18042C41.2745 9.90035 41.7455 10.6486 42.1875 11.4257C42.2195 11.4813 42.2515 11.5368 42.2845 11.594C44.1835 14.9117 45.0419 18.6705 45.0274 22.467C45.0272 22.5565 45.0271 22.6459 45.0269 22.7381C45.0225 24.0221 45.0004 25.2818 44.7363 26.5429C44.7101 26.6715 44.7101 26.6715 44.6834 26.8026C43.7939 31.0549 41.8676 34.921 38.8476 38.0566C38.7921 38.1146 38.7365 38.1725 38.6793 38.2322C37.8756 39.0661 37.0584 39.8343 36.123 40.5175C36.0218 40.593 35.9207 40.6684 35.8195 40.7438C35.0997 41.2744 34.3524 41.7475 33.5742 42.1875C33.512 42.2228 33.4499 42.2582 33.3858 42.2946C31.3524 43.4394 29.1401 44.2083 26.856 44.6759C26.7929 44.6888 26.7297 44.7018 26.6646 44.7151C25.3747 44.9603 24.0981 45.0306 22.7876 45.0277C22.5292 45.0274 22.271 45.0295 22.0126 45.0317C20.8372 45.0356 19.7038 44.9297 18.5449 44.7363C18.395 44.7115 18.395 44.7115 18.2421 44.6862C14.4393 44.0031 10.8314 42.2464 7.91012 39.7265C7.84464 39.6708 7.77915 39.615 7.71168 39.5576C6.52472 38.5195 5.41103 37.3989 4.48239 36.123C4.40711 36.0219 4.33181 35.9209 4.25648 35.8199C3.72562 35.1 3.25248 34.3526 2.81247 33.5742C2.77712 33.512 2.74177 33.4499 2.70535 33.3858C1.56054 31.3524 0.791597 29.1401 0.324064 26.856C0.311113 26.7929 0.298162 26.7297 0.284818 26.6646C0.0234438 25.2894 -0.0328161 23.9294 -0.0274984 22.5329C-0.027309 22.4435 -0.0271195 22.354 -0.0269244 22.2618C-0.0225588 20.9778 -0.000507321 19.7182 0.263639 18.457C0.281101 18.3713 0.298563 18.2856 0.316554 18.1974C1.20606 13.945 3.13232 10.0789 6.15231 6.94333C6.20787 6.88538 6.26343 6.82743 6.32067 6.76772C7.12438 5.93379 7.94153 5.16563 8.87692 4.48239C8.97809 4.40697 9.07925 4.33156 9.18042 4.25614C9.90021 3.7255 10.6475 3.2524 11.4257 2.81247C11.4879 2.77712 11.5501 2.74177 11.6141 2.70535C13.6475 1.56054 15.8598 0.791597 18.1439 0.324064C18.2071 0.311113 18.2703 0.298162 18.3354 0.284818C19.7105 0.0234438 21.0705 -0.0328161 22.467 -0.0274984Z" fill="#FED924"/>
<path d="M44.8243 19.8633C44.8533 19.8633 44.8823 19.8633 44.9122 19.8633C44.9966 20.3621 45.0154 20.8465 45.0179 21.3519C45.0185 21.4354 45.0191 21.5188 45.0198 21.6047C45.0398 25.0941 45.0398 25.0941 44.7364 26.543C44.7102 26.6715 44.7102 26.6715 44.6835 26.8026C43.794 31.0549 41.8677 34.9211 38.8477 38.0566C38.7921 38.1146 38.7366 38.1725 38.6793 38.2323C37.8756 39.0662 37.0585 39.8343 36.1231 40.5176C36.0219 40.593 35.9208 40.6684 35.8196 40.7438C35.0998 41.2745 34.3525 41.7476 33.5743 42.1875C33.481 42.2405 33.481 42.2405 33.3859 42.2946C31.3525 43.4394 29.1402 44.2084 26.8561 44.6759C26.7929 44.6889 26.7298 44.7018 26.6647 44.7151C25.3748 44.9603 24.0982 45.0307 22.7877 45.0277C22.5293 45.0275 22.2711 45.0295 22.0127 45.0318C20.8373 45.0357 19.7039 44.9297 18.545 44.7363C18.3951 44.7115 18.3951 44.7115 18.2421 44.6862C14.4393 44.0031 10.8314 42.2465 7.9102 39.7266C7.84472 39.6708 7.77923 39.6151 7.71176 39.5576C6.5248 38.5196 5.41111 37.3989 4.48247 36.123C4.40719 36.022 4.33189 35.9209 4.25656 35.8199C3.7257 35.1001 3.25256 34.3526 2.81255 33.5742C2.7772 33.5121 2.74185 33.4499 2.70543 33.3859C1.56062 31.3525 0.791677 29.1402 0.324144 26.8561C0.311193 26.7929 0.298242 26.7297 0.284898 26.6646C0.243879 26.4488 0.208928 26.2328 0.175829 26.0156C0.160116 25.9128 0.144403 25.8099 0.128214 25.7039C-0.0120108 24.7063 -0.0242356 23.7165 -0.0180413 22.7104C-0.0164144 22.4366 -0.0162389 22.1628 -0.0162603 21.8891C-0.015829 21.7133 -0.015317 21.5376 -0.0147154 21.3619C-0.0146176 21.2809 -0.0145211 21.1998 -0.0144204 21.1164C-0.0114861 20.7182 0.00708245 20.3429 0.0879381 19.9512C0.229618 20.2068 0.296838 20.4259 0.33925 20.7144C0.351812 20.795 0.364374 20.8756 0.377316 20.9586C0.397221 21.088 0.397221 21.088 0.417528 21.2201C0.583563 22.2302 0.833731 23.1949 1.14263 24.1699C1.16183 24.2325 1.18103 24.2952 1.20082 24.3597C2.18221 27.5319 4.08232 30.6046 6.4655 32.915C6.67974 33.1348 6.67974 33.1348 6.67974 33.3105C6.75757 33.3447 6.75757 33.3447 6.83698 33.3796C7.04597 33.4944 7.16704 33.6134 7.32793 33.7885C7.82886 34.3005 8.39276 34.7281 8.96489 35.1562C9.02308 35.1998 9.08127 35.2434 9.14123 35.2883C10.0653 35.974 11.0222 36.5566 12.0411 37.0898C12.0998 37.1211 12.1586 37.1523 12.2191 37.1845C14.4229 38.3525 16.7864 39.0787 19.2481 39.4629C19.311 39.4732 19.3739 39.4835 19.4388 39.4941C24.9986 40.3673 30.9888 38.7945 35.5287 35.5338C36.4022 34.894 37.2824 34.2095 38.0265 33.4197C38.1446 33.3105 38.1446 33.3105 38.3204 33.3105C38.3504 33.2368 38.3504 33.2368 38.3811 33.1615C38.528 32.9028 38.7137 32.7348 38.9301 32.5305C39.4909 31.9857 39.9624 31.387 40.4297 30.7617C40.4668 30.7129 40.5038 30.6641 40.542 30.6138C42.0526 28.6166 43.2118 26.2972 43.9454 23.9062C43.9663 23.8387 43.9872 23.7711 44.0087 23.7015C44.2975 22.7545 44.4913 21.8065 44.6485 20.8301C44.6828 20.6377 44.7175 20.4454 44.7529 20.2533C44.7668 20.177 44.7807 20.1008 44.7951 20.0222C44.8095 19.9436 44.8095 19.9436 44.8243 19.8633Z" fill="#FFC023"/>
<path d="M12.4804 20.6543C12.4879 20.7456 12.4955 20.8369 12.5034 20.931C12.5971 21.9133 12.7795 22.7215 13.5323 23.4198C14.1617 23.8954 14.7722 24.0923 15.551 24.095C15.6123 24.0953 15.6737 24.0956 15.7369 24.0959C15.9424 24.0969 16.148 24.0973 16.3536 24.0976C16.501 24.0981 16.6484 24.0987 16.7958 24.0993C17.2801 24.1012 17.7643 24.1021 18.2485 24.103C18.4154 24.1033 18.5824 24.1037 18.7493 24.1041C19.5338 24.1057 20.3183 24.107 21.1028 24.1077C22.0071 24.1086 22.9114 24.1109 23.8157 24.1144C24.5154 24.1171 25.2151 24.1184 25.9148 24.1187C26.3323 24.1189 26.7498 24.1197 27.1674 24.1219C27.5606 24.1239 27.9538 24.1243 28.3471 24.1234C28.4908 24.1234 28.6345 24.1239 28.7783 24.1251C29.9513 24.1345 30.8472 23.9911 31.7198 23.1475C31.971 22.8641 32.1298 22.5919 32.2557 22.2363C32.2902 22.1403 32.3246 22.0442 32.3601 21.9452C32.4544 21.5172 32.4894 21.0909 32.5194 20.6543C32.7856 20.7716 32.9527 20.8938 33.1401 21.1157C33.1829 21.1651 33.2256 21.2145 33.2696 21.2654C33.6648 21.8176 33.7045 22.2563 33.695 22.9175C33.694 23.0072 33.693 23.0969 33.6921 23.1893C33.6316 26.1124 32.3529 28.6937 30.3222 30.7617C30.0644 31.0035 29.8018 31.2376 29.5311 31.4648C29.2455 31.3422 29.0852 31.204 28.8884 30.965C28.8344 30.9019 28.7803 30.8388 28.7247 30.7737C28.6718 30.7118 28.6189 30.6498 28.5643 30.5859C27.4871 29.3268 25.5785 28.331 23.9324 28.1403C21.3971 27.948 19.05 28.3635 17.0493 30.0064C16.5374 30.4513 16.0408 30.9119 15.6444 31.4648C13.9736 30.7516 12.7463 28.5216 12.1013 26.922C11.5939 25.5811 11.3281 24.3372 11.3048 22.9065C11.3014 22.7842 11.3014 22.7842 11.2979 22.6595C11.2962 22.0124 11.4478 21.5712 11.8521 21.0663C11.9035 21.0173 11.9549 20.9684 12.0079 20.918C12.0598 20.8672 12.1117 20.8165 12.1652 20.7642C12.3046 20.6543 12.3046 20.6543 12.4804 20.6543Z" fill="#473535"/>
<path d="M14.058 20.1702C14.1706 20.1694 14.1706 20.1694 14.2855 20.1686C14.5348 20.1672 14.7841 20.1683 15.0335 20.1694C15.2132 20.1689 15.3928 20.1683 15.5725 20.1675C16.059 20.1659 16.5454 20.1665 17.0319 20.1677C17.5419 20.1685 18.0519 20.1677 18.5618 20.1672C19.4182 20.1665 20.2746 20.1674 21.1309 20.169C22.1198 20.171 23.1087 20.1703 24.0975 20.1684C24.9477 20.1668 25.7979 20.1666 26.6481 20.1675C27.1554 20.1681 27.6626 20.1681 28.1699 20.167C28.647 20.1659 29.124 20.1667 29.6011 20.1687C29.7758 20.1691 29.9504 20.169 30.1251 20.1682C31.8207 20.1614 31.8207 20.1614 32.5195 20.5664C32.568 21.5174 32.4391 22.3579 31.8163 23.1153C31.1786 23.797 30.5066 24.1681 29.5569 24.2105C29.23 24.2178 28.9033 24.2172 28.5764 24.2154C28.4289 24.2159 28.2814 24.2166 28.1339 24.2173C27.7358 24.2189 27.3378 24.2183 26.9397 24.2172C26.5217 24.2163 26.1036 24.2171 25.6855 24.2177C24.9836 24.2183 24.2818 24.2175 23.5799 24.2158C22.7704 24.2139 21.9609 24.2145 21.1513 24.2164C20.4542 24.218 19.7571 24.2183 19.06 24.2173C18.6445 24.2168 18.2291 24.2167 17.8136 24.2179C17.4229 24.2189 17.0322 24.2182 16.6415 24.2162C16.4987 24.2157 16.356 24.2158 16.2133 24.2166C15.0388 24.2224 14.151 24.074 13.2796 23.2289C12.6311 22.5187 12.4465 21.7093 12.4711 20.7693C12.4742 20.7024 12.4772 20.6354 12.4804 20.5664C13.0192 20.2872 13.4528 20.1633 14.058 20.1702Z" fill="#FCFCFB"/>
<path d="M25.1367 28.3887C25.2287 28.4212 25.2287 28.4212 25.3225 28.4544C26.5843 28.9093 27.5947 29.5668 28.5645 30.498C28.6245 30.5546 28.6845 30.6111 28.7464 30.6693C29.0337 30.9464 29.2444 31.2035 29.4434 31.5527C27.1341 33.3832 24.2434 34.1679 21.3185 33.9066C19.4769 33.6863 17.7625 33.0654 16.2103 32.0526C16.1532 32.0156 16.0961 31.9787 16.0372 31.9406C15.8804 31.8339 15.8804 31.8339 15.6445 31.6406C15.6445 31.1533 16.1109 30.8322 16.4355 30.498C16.5066 30.4247 16.5776 30.3514 16.6508 30.2759C18.818 28.1751 22.2773 27.364 25.1367 28.3887Z" fill="#FD7D27"/>
<path d="M17.2836 9.69338C18.317 10.4452 19.9191 11.694 20.1823 13.0233C20.2039 13.5834 20.1309 13.9787 19.7755 14.4141C19.4291 14.7269 19.1012 14.8818 18.6329 14.9084C18.1568 14.8779 17.8377 14.741 17.4903 14.4141C17.2835 14.159 17.0915 13.8964 16.9002 13.6296C16.3546 12.8957 15.7296 12.333 14.8536 12.041C14.2299 11.9519 13.8481 12.2186 13.3595 12.5684C12.7856 13.0023 12.3797 13.5061 11.9601 14.0872C11.7083 14.4166 11.4483 14.6665 11.0743 14.8535C10.6172 14.8991 10.2291 14.912 9.81088 14.7107C9.43952 14.3747 9.10171 14.0588 9.02879 13.54C8.97804 12.4507 9.82385 11.6747 10.5061 10.9135C12.3302 8.99003 14.9308 8.14318 17.2836 9.69338Z" fill="#483634"/>
<path d="M31.6406 9.05279C31.7188 9.07976 31.7969 9.10672 31.8775 9.1345C33.5982 9.78596 34.8933 11.1247 35.8593 12.6563C36.0096 13.1071 36.004 13.5406 35.8538 13.9911C35.6129 14.3408 35.3103 14.6852 34.897 14.8227C34.4453 14.9001 34.063 14.9209 33.6456 14.7162C33.279 14.3985 32.9894 14.0422 32.696 13.6568C32.1574 12.9649 31.5311 12.3155 30.6738 12.0411C30.0508 11.9814 29.6158 12.1879 29.1305 12.5616C28.6015 13.0119 28.1585 13.474 27.7624 14.0461C27.4716 14.4548 27.2815 14.6816 26.8066 14.8536C26.3698 14.9193 25.9834 14.9136 25.5871 14.7053C25.1629 14.3913 24.9252 14.109 24.8366 13.5826C24.7751 12.7322 25.1397 12.2244 25.664 11.6016C25.703 11.5549 25.742 11.5081 25.7822 11.46C27.1899 9.79727 29.3582 8.23458 31.6406 9.05279Z" fill="#483634"/>
</g>
<defs>
<clipPath id="clip0_10_138">
<rect width="45" height="45" fill="white"/>
</clipPath>
</defs>
</svg>
