<svg width="167" height="115" viewBox="0 0 167 115" fill="none" xmlns="http://www.w3.org/2000/svg">
<g clip-path="url(#clip0_57_16)">
<path d="M39.0529 13.8045C39.2086 13.7498 39.3643 13.6951 39.5247 13.6388C41.7602 12.8571 43.9643 12.121 46.3198 11.8051C46.4796 11.7828 46.6393 11.7605 46.8039 11.7375C54.7454 10.6702 62.6527 11.6432 69.962 14.9674C70.1644 15.0588 70.1644 15.0588 70.3708 15.1522C72.3151 16.0371 74.1533 16.9859 75.9164 18.1925C76.1098 18.3221 76.3031 18.4517 76.4965 18.5812C77.8619 19.5069 79.1409 20.5186 80.3873 21.5983C80.4771 21.6752 80.567 21.7521 80.6596 21.8313C86.0014 26.4333 89.8048 32.4421 92.1136 39.053C92.1682 39.2087 92.2229 39.3644 92.2792 39.5248C93.061 41.7603 93.797 43.9644 94.1129 46.3199C94.1464 46.5595 94.1464 46.5595 94.1805 46.804C95.2478 54.7455 94.2748 62.6529 90.9507 69.9621C90.8897 70.097 90.8287 70.2319 90.7659 70.371C89.8809 72.3152 88.9321 74.1534 87.7255 75.9165C87.5959 76.1099 87.4664 76.3032 87.3368 76.4966C86.4113 77.8618 85.4026 79.144 84.3197 80.3874C84.2333 80.4871 84.147 80.5868 84.058 80.6895C81.2258 83.9303 77.8513 86.6275 74.1667 88.8447C74.0648 88.906 73.9629 88.9674 73.8579 89.0306C71.7656 90.2499 69.5888 91.157 67.3081 91.9576C66.8586 92.1159 66.4108 92.2783 65.9628 92.441C63.9213 93.1704 61.8851 93.6829 59.7509 94.059C59.475 94.108 59.475 94.108 59.1935 94.1581C52.1606 95.308 44.8066 94.4711 38.1775 91.8848C38.0294 91.8282 37.8812 91.7715 37.7286 91.7131C35.0263 90.6376 32.4007 89.3734 30.0015 87.7256C29.8084 87.5961 29.6154 87.4667 29.4223 87.3373C28.0566 86.4119 26.7743 85.4029 25.5306 84.3198C25.4309 84.2334 25.3312 84.1471 25.2285 84.0581C21.9877 81.2259 19.2905 77.8514 17.0734 74.1668C17.012 74.0649 16.9506 73.963 16.8874 73.858C15.5875 71.6273 14.6536 69.2969 13.8044 66.8651C13.7497 66.7094 13.695 66.5537 13.6387 66.3933C12.8569 64.1578 12.1209 61.9537 11.805 59.5982C11.7827 59.4384 11.7604 59.2787 11.7374 59.1141C10.6701 51.1726 11.6431 43.2653 14.9672 35.9561C15.0282 35.8211 15.0892 35.6862 15.1521 35.5472C16.037 33.6029 16.9858 31.7648 18.1924 30.0016C18.322 29.8082 18.4516 29.6149 18.5811 29.4216C19.5066 28.0563 20.5153 26.7742 21.5982 25.5307C21.6846 25.431 21.7709 25.3314 21.8599 25.2287C24.6922 21.9878 28.0666 19.2906 31.7512 17.0735C31.8531 17.0121 31.955 16.9507 32.06 16.8875C34.2907 15.5876 36.6211 14.6537 39.0529 13.8045Z" fill="#FED924"/>
<path d="M90.1594 34.65C90.2098 34.6322 90.2603 34.6143 90.3122 34.596C90.7657 35.4114 91.0963 36.2424 91.4113 37.1197C91.4636 37.2644 91.516 37.4091 91.5699 37.5581C93.7499 43.6138 93.7499 43.6138 94.1129 46.3199C94.1463 46.5595 94.1463 46.5595 94.1805 46.8039C95.2477 54.7454 94.2747 62.6528 90.9506 69.962C90.8896 70.0969 90.8286 70.2319 90.7658 70.3709C89.8808 72.3152 88.932 74.1533 87.7254 75.9165C87.5958 76.1098 87.4663 76.3032 87.3367 76.4965C86.4112 77.8618 85.4025 79.1439 84.3196 80.3873C84.1901 80.5369 84.1901 80.5369 84.0579 80.6894C81.2257 83.9302 77.8512 86.6274 74.1666 88.8446C74.0647 88.906 73.9628 88.9673 73.8578 89.0305C71.7655 90.2498 69.5887 91.157 67.308 91.9575C66.8585 92.1159 66.4107 92.2782 65.9628 92.4409C63.9212 93.1703 61.8851 93.6828 59.7508 94.059C59.4749 94.108 59.4749 94.108 59.1934 94.158C52.1605 95.3079 44.8065 94.471 38.1774 91.8848C38.0293 91.8281 37.8811 91.7714 37.7285 91.713C35.0262 90.6375 32.4006 89.3733 30.0014 87.7255C29.8084 87.596 29.6153 87.4666 29.4222 87.3372C28.0565 86.4118 26.7742 85.4028 25.5305 84.3197C25.4309 84.2334 25.3312 84.147 25.2285 84.058C21.9876 81.2258 19.2905 77.8513 17.0733 74.1668C17.0119 74.0648 16.9506 73.9629 16.8873 73.8579C16.6833 73.5078 16.4898 73.1537 16.2987 72.7964C16.2081 72.6272 16.1176 72.458 16.0243 72.2836C15.1672 70.635 14.5374 68.9213 13.9297 67.1678C13.7642 66.6907 13.5962 66.2146 13.4279 65.7385C13.3206 65.4326 13.2134 65.1267 13.1065 64.8208C13.0568 64.6798 13.0072 64.5388 12.956 64.3936C12.7164 63.6995 12.518 63.0355 12.4177 62.3045C12.8213 62.6619 13.0728 63.0015 13.3239 63.4772C13.3953 63.6096 13.4667 63.742 13.5403 63.8785C13.6545 64.0913 13.6545 64.0913 13.771 64.3085C14.6806 65.9629 15.7088 67.4868 16.8453 68.9924C16.9172 69.0895 16.9891 69.1866 17.0632 69.2867C20.7199 74.1997 25.9131 78.375 31.4777 80.9278C31.9854 81.1782 31.9854 81.1782 32.0934 81.4839C32.2498 81.4954 32.2498 81.4954 32.4093 81.5072C32.8433 81.5784 33.127 81.7109 33.5144 81.9165C34.7003 82.4989 35.9438 82.8959 37.2019 83.2887C37.3299 83.3287 37.4579 83.3687 37.5897 83.4099C39.6182 84.0343 41.6403 84.4592 43.74 84.7601C43.8614 84.7783 43.9828 84.7965 44.1078 84.8153C48.6581 85.4916 53.2147 85.3016 57.7317 84.4563C57.8475 84.4355 57.9632 84.4147 58.0825 84.3933C68.2877 82.494 77.7377 76.0764 83.6279 67.6152C84.7537 65.9655 85.8634 64.2341 86.672 62.4033C86.8102 62.1409 86.8102 62.1409 87.1159 62.0328C87.1229 61.8861 87.1229 61.8861 87.13 61.7363C87.2264 61.1961 87.446 60.7898 87.6967 60.3015C88.337 59.0093 88.7889 57.6784 89.2172 56.3037C89.2516 56.1961 89.286 56.0884 89.3214 55.9776C90.7206 51.5757 91.3106 46.8297 91.1164 42.2209C91.1112 42.0906 91.1061 41.9602 91.1007 41.8259C91.0207 40.0016 90.775 38.234 90.448 36.4393C90.3894 36.0837 90.3316 35.728 90.275 35.3721C90.2523 35.231 90.2297 35.0898 90.2064 34.9444C90.1831 34.7986 90.1831 34.7986 90.1594 34.65Z" fill="#FFC023"/>
<path d="M34.4006 55.9088C34.4699 56.0629 34.5393 56.2171 34.6107 56.3759C35.3776 58.0265 36.1916 59.3197 37.93 60.0712C39.3168 60.5115 40.4996 60.4785 41.8555 60.0044C41.9624 59.9673 42.0693 59.9301 42.1794 59.8918C42.5374 59.7671 42.8951 59.6414 43.2528 59.5156C43.5095 59.4259 43.7662 59.3363 44.023 59.2467C44.8662 58.9523 45.7088 58.6562 46.5514 58.36C46.8419 58.258 47.1324 58.156 47.4229 58.0541C48.7881 57.5747 50.1531 57.0946 51.5178 56.6136C53.0909 56.0592 54.6649 55.5073 56.2396 54.9576C57.458 54.532 58.6756 54.1041 59.8926 53.6745C60.6188 53.4182 61.3453 53.1629 62.0727 52.9101C62.7578 52.6719 63.4419 52.4308 64.1252 52.1875C64.3751 52.099 64.6254 52.0116 64.8761 51.9254C66.9217 51.2205 68.3915 50.4204 69.3904 48.417C69.6529 47.7697 69.7619 47.1988 69.7622 46.503C69.763 46.3148 69.7639 46.1265 69.7647 45.9326C69.6656 45.1304 69.4644 44.3675 69.2482 43.5898C69.7832 43.6301 70.1489 43.7399 70.6113 44.0106C70.7159 44.0703 70.8205 44.1299 70.9284 44.1914C71.9551 44.9087 72.2939 45.6472 72.6837 46.8028C72.7372 46.9594 72.7907 47.1159 72.8458 47.2773C74.5375 52.3976 73.9008 57.6725 71.6407 62.5172C71.341 63.0961 71.0284 63.6647 70.6974 64.2262C70.1252 64.1886 69.7615 64.0467 69.2724 63.752C69.1397 63.6755 69.0069 63.599 68.8701 63.5201C68.74 63.4449 68.6099 63.3697 68.4758 63.2921C65.8286 61.7648 61.8974 61.2064 58.9174 61.8868C54.3904 63.1109 50.5643 65.2763 48.0951 69.3632C47.4784 70.4516 46.898 71.5578 46.5486 72.763C43.2046 72.5498 39.6994 69.4264 37.5945 67.0412C35.8879 65.0214 34.6609 63.0217 33.7409 60.548C33.6597 60.3375 33.6597 60.3375 33.577 60.1227C33.1763 58.9984 33.1687 58.1379 33.5613 57.0115C33.6206 56.8947 33.68 56.778 33.7412 56.6577C33.8002 56.5376 33.8592 56.4174 33.9201 56.2936C34.0949 56.0169 34.0949 56.0169 34.4006 55.9088Z" fill="#473535"/>
<path d="M36.8463 54.0973C37.0416 54.0266 37.0416 54.0266 37.2409 53.9546C37.6737 53.7988 38.1079 53.6475 38.5422 53.4961C38.8543 53.3848 39.1664 53.2733 39.4784 53.1615C40.3234 52.8597 41.1697 52.5617 42.0164 52.2646C42.9037 51.9526 43.7901 51.6377 44.6765 51.3232C46.1654 50.7957 47.6551 50.2707 49.1453 49.7471C50.8662 49.1425 52.5854 48.5336 54.3038 47.9223C55.7813 47.3969 57.2596 46.8738 58.7387 46.3528C59.6211 46.0419 60.5033 45.7302 61.3847 45.4163C62.2137 45.1212 63.0437 44.8292 63.8746 44.5395C64.1786 44.4329 64.4823 44.3253 64.7855 44.2166C67.7299 43.1623 67.7299 43.1623 69.1941 43.4371C69.8631 45.061 70.1556 46.6017 69.5382 48.3017C68.8483 49.8793 67.9079 50.9378 66.2824 51.5954C65.7184 51.809 65.15 52.0088 64.5804 52.2067C64.3241 52.2982 64.068 52.3899 63.812 52.482C63.1207 52.7294 62.4282 52.9731 61.7353 53.2158C61.0077 53.4713 60.2812 53.7297 59.5545 53.9877C58.3344 54.4203 57.1134 54.8503 55.8918 55.2788C54.4829 55.7732 53.0755 56.2719 51.6689 56.7729C50.4576 57.2043 49.2455 57.6332 48.0327 58.0601C47.3099 58.3146 46.5874 58.5698 45.8656 58.8273C45.1868 59.0693 44.5069 59.3082 43.8262 59.5449C43.5777 59.6318 43.3296 59.7198 43.0818 59.8089C41.0431 60.541 39.4078 60.8287 37.3731 59.8948C35.8087 59.0583 34.9901 57.7644 34.4551 56.1147C34.4193 55.9963 34.3834 55.878 34.3465 55.7561C35.1119 54.9393 35.7897 54.4573 36.8463 54.0973Z" fill="#FCFCFB"/>
<path d="M61.1642 61.5784C61.3442 61.5784 61.3442 61.5784 61.5278 61.5785C64.0015 61.5939 66.1629 62.1163 68.4217 63.1394C68.5609 63.2008 68.7001 63.2622 68.8435 63.3255C69.5134 63.6307 70.0379 63.9482 70.5985 64.4332C67.708 69.0359 63.1635 72.1775 57.9165 73.5213C54.5786 74.2702 51.2156 74.2445 47.8938 73.4374C47.7718 73.4083 47.6497 73.3791 47.524 73.3491C47.1856 73.26 47.1856 73.26 46.6566 73.0688C46.3571 72.2215 46.9706 71.3764 47.3298 70.5956C47.4082 70.4245 47.4867 70.2534 47.5676 70.077C50.0448 65.0915 55.5618 61.5544 61.1642 61.5784Z" fill="#FD7D27"/>
<path d="M36.0149 33.8954C38.2741 34.5676 41.8277 35.7543 43.1026 37.904C43.4846 38.8648 43.6005 39.5972 43.2502 40.5727C42.8401 41.3298 42.3651 41.8006 41.5672 42.1348C40.7205 42.3744 40.0814 42.3325 39.2763 41.9775C38.7598 41.6612 38.2645 41.3225 37.7677 40.9761C36.368 40.0353 34.935 39.441 33.2323 39.4717C32.0929 39.7002 31.5928 40.3987 30.9582 41.3073C30.2271 42.4147 29.831 43.5404 29.4584 44.8088C29.2231 45.5364 28.9245 46.1308 28.3891 46.6859C27.6222 47.0462 26.9553 47.3073 26.1043 47.2143C25.2519 46.8583 24.4703 46.5165 24.0245 45.6592C23.2666 43.7962 24.2604 41.9267 24.9789 40.1837C26.9686 35.7174 30.9703 32.646 36.0149 33.8954Z" fill="#483634"/>
<path d="M60.5875 23.9554C60.7401 23.9542 60.8926 23.9531 61.0497 23.9519C64.4426 24.0269 67.5177 25.5588 70.1391 27.6284C70.6776 28.3199 70.9343 29.0772 70.9502 29.953C70.7462 30.7092 70.4317 31.494 69.7974 31.9872C69.0595 32.3996 68.4076 32.6707 67.5558 32.5715C66.723 32.2443 66.0003 31.8027 65.2531 31.3128C63.8913 30.4407 62.4029 29.6965 60.7433 29.7463C59.6232 30.0255 58.9938 30.6521 58.3796 31.6001C57.7365 32.7084 57.2502 33.7843 56.9131 35.0227C56.6586 35.9123 56.4675 36.4235 55.7473 37.0145C55.0282 37.3973 54.3528 37.625 53.5355 37.5063C52.6047 37.2211 52.0178 36.8763 51.5402 36.0154C50.9104 34.5744 51.2323 33.4671 51.7613 32.0618C51.8004 31.9566 51.8395 31.8513 51.8797 31.7428C53.3056 27.9861 56.1155 23.9356 60.5875 23.9554Z" fill="#483634"/>
</g>
<g clip-path="url(#clip1_57_16)">
<path d="M127.239 22.4553C127.395 22.5094 127.551 22.5635 127.712 22.6192C129.948 23.3985 132.132 24.194 134.172 25.4126C134.311 25.4946 134.45 25.5765 134.593 25.6609C141.473 29.7677 147.057 35.4503 150.71 42.601C150.812 42.7986 150.812 42.7986 150.915 43.0001C151.886 44.9028 152.735 46.7894 153.364 48.8312C153.435 49.0529 153.505 49.2746 153.576 49.4964C154.069 51.0707 154.44 52.6586 154.744 54.2794C154.767 54.3955 154.789 54.5116 154.812 54.6312C156.13 61.5578 155.367 68.6282 153.06 75.2397C153.006 75.3956 152.952 75.5515 152.896 75.7121C152.117 77.9485 151.322 80.1318 150.103 82.1723C149.98 82.3806 149.98 82.3806 149.855 82.5932C145.748 89.4737 140.065 95.0577 132.915 98.7104C132.783 98.7781 132.651 98.8457 132.516 98.9155C130.613 99.8866 128.726 100.735 126.685 101.364C126.463 101.435 126.241 101.506 126.019 101.576C124.445 102.069 122.858 102.445 121.236 102.744C121.107 102.769 120.977 102.793 120.843 102.818C116.61 103.592 112.29 103.603 108.026 103.046C107.908 103.03 107.79 103.015 107.668 102.999C105.272 102.652 103.003 102.007 100.72 101.214C100.27 101.058 99.8179 100.907 99.3661 100.755C97.3141 100.056 95.4013 99.1899 93.4967 98.1562C93.2502 98.0228 93.2502 98.0228 92.9987 97.8868C86.778 94.4101 81.5424 89.1785 77.9629 83.0286C77.8822 82.8921 77.8015 82.7555 77.7184 82.6148C76.2725 80.0912 75.004 77.4677 74.1515 74.6848C74.0809 74.4633 74.0104 74.2418 73.9397 74.0204C73.4467 72.4461 73.0708 70.8583 72.7714 69.2366C72.7471 69.1069 72.7228 68.9773 72.6978 68.8437C71.9236 64.6099 71.9123 60.29 72.4698 56.0261C72.4852 55.9081 72.5006 55.7901 72.5165 55.6686C72.8872 53.1135 73.6064 50.7082 74.455 48.2762C74.5091 48.1203 74.5632 47.9644 74.6189 47.8038C75.3983 45.5674 76.1938 43.3841 77.4124 41.3437C77.4943 41.2048 77.5763 41.0659 77.6607 40.9227C81.7675 34.0422 87.45 28.4582 94.6007 24.8055C94.7324 24.7379 94.8642 24.6702 94.9999 24.6005C96.9025 23.6294 98.7891 22.781 100.831 22.1517C101.053 22.081 101.274 22.0103 101.496 21.9396C103.07 21.4469 104.658 21.071 106.279 20.7716C106.409 20.7473 106.538 20.7231 106.672 20.698C110.906 19.9238 115.226 19.9126 119.49 20.4701C119.608 20.4855 119.726 20.5009 119.847 20.5167C122.402 20.8874 124.807 21.6067 127.239 22.4553Z" fill="#FED924"/>
<path d="M154.271 70.5772C154.322 70.5946 154.372 70.612 154.424 70.63C154.272 71.5505 154.013 72.4066 153.714 73.2894C153.665 73.4353 153.616 73.5811 153.565 73.7314C151.503 79.8282 151.503 79.8282 150.103 82.1722C149.98 82.3806 149.98 82.3806 149.855 82.5932C145.748 89.4737 140.065 95.0577 132.915 98.7104C132.783 98.778 132.651 98.8457 132.516 98.9154C130.613 99.8866 128.726 100.735 126.685 101.364C126.463 101.435 126.241 101.506 126.019 101.576C124.445 102.069 122.858 102.445 121.236 102.744C121.042 102.781 121.042 102.781 120.844 102.818C116.61 103.592 112.29 103.603 108.026 103.046C107.908 103.03 107.79 103.015 107.668 102.999C105.272 102.651 103.003 102.007 100.72 101.214C100.27 101.058 99.818 100.907 99.3661 100.755C97.3142 100.056 95.4014 99.1899 93.4967 98.1561C93.2502 98.0228 93.2502 98.0228 92.9988 97.8867C86.7781 94.4101 81.5425 89.1784 77.963 83.0286C77.8823 82.892 77.8016 82.7555 77.7185 82.6148C76.2726 80.0912 75.004 77.4677 74.1515 74.6848C74.081 74.4633 74.0104 74.2418 73.9398 74.0204C73.4467 72.4461 73.0709 70.8583 72.7714 69.2365C72.7471 69.1069 72.7228 68.9773 72.6978 68.8437C71.9236 64.6099 71.9124 60.29 72.4699 56.026C72.4852 55.9081 72.5006 55.7901 72.5165 55.6686C72.5747 55.2676 72.6435 54.8699 72.7163 54.4713C72.7508 54.2825 72.7852 54.0937 72.8207 53.8991C73.1757 52.0753 73.7493 50.3419 74.3648 48.5912C74.5321 48.1148 74.697 47.6375 74.8615 47.1601C74.9679 46.8539 75.0744 46.5478 75.181 46.2417C75.2299 46.1005 75.2788 45.9592 75.3291 45.8137C75.5735 45.1212 75.8314 44.478 76.2079 43.8434C76.3013 44.3743 76.2869 44.7967 76.1874 45.3253C76.1609 45.4734 76.1344 45.6215 76.107 45.7741C76.0639 46.0118 76.0639 46.0118 76.02 46.2542C75.7024 48.1154 75.5588 49.9481 75.5115 51.8339C75.5074 51.9546 75.5032 52.0754 75.4989 52.1998C75.3038 58.3211 76.7704 64.8213 79.5375 70.2825C79.779 70.7944 79.779 70.7944 79.6734 71.101C79.7886 71.2073 79.7886 71.2073 79.9061 71.3158C80.2015 71.6417 80.3412 71.9219 80.5165 72.3239C81.0823 73.5178 81.8086 74.6024 82.5489 75.6929C82.6242 75.8038 82.6995 75.9148 82.777 76.0291C83.9763 77.7802 85.2947 79.3712 86.751 80.9134C86.8347 81.0032 86.9183 81.093 87.0046 81.1855C90.1454 84.5466 93.8304 87.2336 97.8922 89.383C97.9957 89.4388 98.0993 89.4945 98.2059 89.552C107.376 94.4162 118.767 95.2738 128.643 92.3163C130.551 91.7256 132.497 91.061 134.27 90.131C134.541 90.0117 134.541 90.0117 134.848 90.1173C134.944 90.0068 134.944 90.0068 135.043 89.894C135.455 89.5311 135.88 89.3497 136.38 89.1236C137.685 88.5105 138.867 87.75 140.058 86.9405C140.152 86.8776 140.246 86.8148 140.342 86.75C144.177 84.1751 147.592 80.8274 150.308 77.099C150.386 76.9937 150.463 76.8884 150.542 76.78C151.615 75.3022 152.522 73.7656 153.383 72.1574C153.559 71.8426 153.735 71.5281 153.912 71.2143C153.982 71.0898 154.052 70.9652 154.125 70.8368C154.197 70.7083 154.197 70.7083 154.271 70.5772Z" fill="#FFC023"/>
<path d="M97.395 52.5176C97.3534 52.6814 97.3117 52.8452 97.2688 53.0139C96.8419 54.7832 96.6743 56.3021 97.5673 57.9722C98.3789 59.1799 99.3252 59.8901 100.682 60.3628C100.788 60.4003 100.895 60.4377 101.005 60.4763C101.363 60.6015 101.721 60.7256 102.08 60.8498C102.336 60.9393 102.593 61.0289 102.85 61.1186C103.693 61.4129 104.537 61.7055 105.381 61.998C105.672 62.099 105.962 62.1999 106.253 62.3009C107.62 62.7753 108.988 63.249 110.355 63.7217C111.931 64.2667 113.507 64.8143 115.082 65.3639C116.3 65.7891 117.52 66.2119 118.74 66.6329C119.468 66.8842 120.195 67.1365 120.922 67.3913C121.606 67.6313 122.292 67.8682 122.978 68.103C123.229 68.1893 123.479 68.2766 123.729 68.3651C125.769 69.0864 127.417 69.3749 129.446 68.4283C130.054 68.085 130.495 67.7059 130.928 67.1615C131.046 67.0147 131.164 66.8678 131.285 66.7166C131.707 66.027 132.024 65.3046 132.339 64.5613C132.732 64.9258 132.95 65.2393 133.144 65.7389C133.189 65.8508 133.233 65.9626 133.28 66.0778C133.637 67.2782 133.442 68.0671 133.028 69.2143C132.973 69.3701 132.917 69.526 132.86 69.6865C130.998 74.7473 127.217 78.4801 122.433 80.8658C121.838 81.1324 121.239 81.3829 120.631 81.6165C120.206 81.231 120.01 80.8936 119.81 80.3585C119.754 80.216 119.698 80.0735 119.64 79.9266C119.585 79.7868 119.53 79.6469 119.473 79.5028C118.351 76.6598 115.622 73.7762 112.866 72.4543C108.56 70.5953 104.218 69.9091 99.7415 71.5716C98.5814 72.0397 97.4388 72.5444 96.4152 73.2704C93.9303 71.0225 93.1304 66.3962 92.9671 63.2193C92.8882 60.5761 93.1723 58.2473 93.9916 55.7384C94.059 55.5231 94.059 55.5231 94.1279 55.3035C94.514 54.1741 95.0435 53.4958 96.0518 52.8584C96.1709 52.804 96.2901 52.7495 96.4128 52.6934C96.5338 52.6361 96.6548 52.5788 96.7794 52.5197C97.0885 52.4119 97.0885 52.4119 97.395 52.5176Z" fill="#473535"/>
<path d="M100.437 52.6217C100.634 52.6879 100.634 52.6879 100.835 52.7555C101.27 52.9029 101.704 53.0547 102.139 53.2065C102.452 53.3136 102.766 53.4205 103.08 53.5272C103.929 53.8168 104.777 54.1102 105.625 54.4045C106.513 54.7126 107.403 55.0176 108.293 55.3232C109.786 55.8367 111.279 56.3529 112.771 56.8705C114.495 57.4682 116.219 58.0614 117.945 58.6523C119.428 59.1605 120.911 59.6711 122.393 60.1837C123.277 60.4895 124.162 60.7945 125.047 61.0974C125.88 61.3823 126.711 61.6703 127.542 61.9605C127.846 62.0663 128.151 62.1711 128.456 62.2747C131.417 63.2818 131.417 63.2818 132.392 64.4081C131.905 66.0956 131.175 67.4836 129.634 68.4301C128.112 69.2356 126.717 69.4789 125.035 68.982C124.461 68.7983 123.892 68.601 123.323 68.4013C123.065 68.3135 122.808 68.2259 122.55 68.1386C121.855 67.9022 121.161 67.6619 120.468 67.4207C119.739 67.1679 119.01 66.9181 118.28 66.6677C117.056 66.247 115.833 65.8238 114.61 65.399C113.199 64.9091 111.787 64.4237 110.374 63.9405C109.158 63.5243 107.942 63.1057 106.727 62.6852C106.003 62.4345 105.279 62.1847 104.553 61.937C103.871 61.704 103.191 61.4679 102.51 61.2296C102.262 61.143 102.013 61.0574 101.763 60.973C99.7121 60.2773 98.253 59.4849 97.2415 57.4875C96.5375 55.8592 96.702 54.3369 97.3099 52.7127C97.3554 52.5977 97.401 52.4828 97.448 52.3644C98.5554 52.2014 99.386 52.2459 100.437 52.6217Z" fill="#FCFCFB"/>
<path d="M114.816 73.6112C114.957 73.7232 114.957 73.7232 115.101 73.8375C117.028 75.3891 118.394 77.143 119.526 79.3496C119.597 79.4843 119.667 79.619 119.74 79.7577C120.075 80.4135 120.288 80.9885 120.425 81.717C115.298 83.521 109.785 83.152 104.842 80.9385C101.763 79.4475 99.1466 77.3344 97.0487 74.6355C96.9713 74.5367 96.8939 74.438 96.8142 74.3362C96.6048 74.0558 96.6048 74.0558 96.3097 73.577C96.6025 72.7273 97.6087 72.4476 98.3757 72.06C98.5436 71.9749 98.7116 71.8898 98.8846 71.8021C103.926 69.4412 110.446 70.1059 114.816 73.6112Z" fill="#FD7D27"/>
<path d="M112.358 36.2908C113.708 38.223 115.751 41.3634 115.412 43.8395C115.113 44.8293 114.748 45.4747 113.866 46.0203C113.074 46.3577 112.409 46.4306 111.577 46.1957C110.765 45.8563 110.291 45.4258 109.881 44.6469C109.674 44.0778 109.497 43.5045 109.324 42.9242C108.814 41.3166 108.062 39.9597 106.71 38.9241C105.676 38.3939 104.85 38.6294 103.787 38.9457C102.526 39.3576 101.515 39.9921 100.434 40.7532C99.7973 41.1762 99.1937 41.4558 98.4292 41.5571C97.6047 41.3618 96.9201 41.1512 96.3119 40.5487C95.8662 39.7396 95.4671 38.9857 95.6517 38.0372C96.2179 36.1072 98.1592 35.2623 99.8063 34.3451C104.143 32.0873 109.187 32.1735 112.358 36.2908Z" fill="#483634"/>
<path d="M137.779 43.8026C137.899 43.8966 138.019 43.9906 138.143 44.0875C140.752 46.2577 142.206 49.3705 142.97 52.6218C142.961 53.4983 142.69 54.2508 142.158 54.9462C141.528 55.4112 140.793 55.8298 139.99 55.8211C139.155 55.6847 138.476 55.4912 137.871 54.8834C137.423 54.1091 137.132 53.3136 136.852 52.4652C136.329 50.9351 135.627 49.4263 134.297 48.4325C133.246 47.9539 132.364 48.0527 131.293 48.4125C130.1 48.8798 129.05 49.4194 128.015 50.179C127.262 50.7169 126.795 50.9982 125.863 51.0126C125.062 50.8647 124.392 50.6226 123.826 50.0211C123.275 49.2186 123.03 48.5834 123.192 47.6123C123.595 46.0925 124.537 45.426 125.825 44.6552C125.921 44.5971 126.017 44.5391 126.116 44.4792C129.57 42.4259 134.291 41.0041 137.779 43.8026Z" fill="#483634"/>
</g>
<defs>
<clipPath id="clip0_57_16">
<rect width="83" height="83" fill="white" transform="translate(0 27.6638) rotate(-19.4691)"/>
</clipPath>
<clipPath id="clip1_57_16">
<rect width="83" height="83" fill="white" transform="translate(88.0454 9.00024) rotate(19.017)"/>
</clipPath>
</defs>
</svg>
