<svg width="46" height="50" viewBox="0 0 46 50" fill="none" xmlns="http://www.w3.org/2000/svg">
<mask id="path-1-outside-1_10_120" maskUnits="userSpaceOnUse" x="0.00012207" y="0" width="46" height="50" fill="black">
<rect fill="white" x="0.00012207" width="46" height="50"/>
<path d="M8.19669 2.00048C8.25844 2.00121 8.32019 2.00193 8.38381 2.00269C9.15804 2.02782 9.68506 2.30446 10.2474 2.82411C10.7657 3.42151 10.9606 4.10731 10.9515 4.8813C10.8888 5.64408 10.538 6.24337 9.98197 6.75756C9.36318 7.27189 8.73909 7.41551 7.94401 7.40026C7.23473 7.29376 6.55732 6.96664 6.10758 6.39913C5.97982 6.20884 5.85971 6.01758 5.74674 5.81823C5.0724 5.99915 4.66988 6.28924 4.30753 6.8839C4.08974 7.26708 3.9781 7.56052 3.97659 8.00261C3.97609 8.09055 3.97558 8.17849 3.97507 8.26909C3.97497 8.36552 3.97487 8.46194 3.97477 8.56129C3.97433 8.66294 3.9739 8.76458 3.97345 8.86931C3.97216 9.20681 3.97156 9.5443 3.97108 9.88179C3.9707 10.0573 3.97032 10.2328 3.96994 10.4083C3.9689 10.8982 3.96824 11.388 3.96793 11.8778C3.96754 12.5084 3.96601 13.139 3.96345 13.7696C3.96154 14.2585 3.96066 14.7475 3.96055 15.2364C3.96046 15.5276 3.95982 15.8188 3.95837 16.11C3.94592 17.8373 3.94592 17.8373 4.2526 19.5292C4.26948 19.5953 4.28636 19.6615 4.30375 19.7296C4.65708 21.0374 5.33258 22.1789 6.1862 23.2206C6.24749 23.2964 6.30878 23.3722 6.37193 23.4503C7.97044 25.3293 10.4179 26.4166 12.849 26.6244C15.33 26.7857 17.8258 25.9809 19.7214 24.3631C19.7905 24.3067 19.8596 24.2503 19.9308 24.1922C21.7985 22.6055 22.8715 20.2898 23.1081 17.8716C23.1798 16.9761 23.1654 16.0763 23.1669 15.1786C23.1672 15.08 23.1674 14.9815 23.1677 14.8799C23.169 14.359 23.1698 13.838 23.1702 13.3171C23.1707 12.7816 23.1728 12.2462 23.1753 11.7107C23.1769 11.2963 23.1774 10.8819 23.1775 10.4675C23.1778 10.2701 23.1785 10.0728 23.1796 9.87546C23.2366 8.03353 23.2366 8.03353 22.4497 6.42591C22.1477 6.14289 21.7339 5.81823 21.3034 5.81823C21.1885 5.97872 21.1885 5.97872 21.0727 6.18077C20.6413 6.84183 20.1338 7.18622 19.3633 7.36421C18.5633 7.47636 17.8356 7.34318 17.1725 6.87291C16.4907 6.25265 16.1583 5.6234 16.0959 4.70311C16.1102 3.93954 16.3835 3.29218 16.9089 2.74205C17.6059 2.11601 18.2764 1.98174 19.1944 2.00494C19.857 2.04822 20.3796 2.3956 20.8639 2.82994C20.959 2.98799 21.0486 3.14939 21.1331 3.31334C21.4388 3.81466 21.7057 3.9214 22.2595 4.06659C23.205 4.34822 23.9565 5.07856 24.4517 5.91161C24.9814 6.93525 25.096 7.87803 25.0954 9.01244C25.0959 9.14339 25.0959 9.14339 25.0963 9.27699C25.0972 9.56385 25.0973 9.85071 25.0974 10.1376C25.0977 10.3391 25.098 10.5407 25.0983 10.7423C25.0989 11.1646 25.099 11.587 25.099 12.0093C25.099 12.5458 25.1002 13.0823 25.1017 13.6188C25.1027 14.0354 25.1028 14.452 25.1028 14.8687C25.1029 15.0661 25.1033 15.2636 25.104 15.4611C25.1069 16.4087 25.0979 17.3491 25.0055 18.2927C24.9989 18.3612 24.9922 18.4296 24.9853 18.5C24.6735 21.3215 23.167 24.0842 20.9793 25.8919C20.3697 26.377 19.7279 26.8011 19.0512 27.1866C18.9929 27.2199 18.9347 27.2532 18.8747 27.2874C18.5736 27.453 18.3057 27.5718 17.9635 27.6151C17.9676 27.7224 17.9717 27.8297 17.9759 27.9402C18.0155 29.4178 17.7396 30.5864 16.7276 31.7185C16.1205 32.2884 15.3299 32.6722 14.5358 32.8885C14.5297 33.7023 14.525 34.5161 14.5221 35.3299C14.5208 35.7079 14.5189 36.0859 14.5159 36.4639C14.513 36.8297 14.5115 37.1956 14.5108 37.5615C14.5103 37.7 14.5094 37.8385 14.5079 37.9769C14.4876 40.017 15.0166 41.7833 16.4145 43.3122C17.6811 44.5267 19.3853 45.1742 21.1276 45.1932C22.9159 45.0965 24.4929 44.4223 25.7858 43.1717C27.111 41.6677 27.557 39.9606 27.5561 37.9996C27.5566 37.8281 27.557 37.6566 27.5575 37.4851C27.558 37.3018 27.5582 37.1185 27.5584 36.9353C27.559 36.5512 27.5604 36.1671 27.5621 35.7831C27.5626 35.651 27.5632 35.519 27.5637 35.3869C27.564 35.3208 27.5643 35.2547 27.5646 35.1866C27.5683 34.2936 27.5712 33.4007 27.5723 32.5077C27.573 31.9038 27.575 31.3 27.5784 30.6961C27.5801 30.3776 27.5812 30.0592 27.5807 29.7406C27.5778 27.1897 27.5778 27.1897 27.9831 25.9452C28.0072 25.8709 28.0314 25.7967 28.0563 25.7201C28.7967 23.6665 30.3411 22.1196 32.2916 21.2028C33.0689 20.8534 33.8875 20.557 34.7506 20.5839C34.7778 20.418 34.7778 20.418 34.8056 20.2488C35.0453 19.1884 35.7312 18.2989 36.6238 17.6999C37.7302 17.0377 38.8791 16.8242 40.1449 17.0737C41.3957 17.3931 42.3282 18.0782 43.0014 19.1721C43.5951 20.2728 43.7083 21.4236 43.482 22.6558C43.1418 23.7778 42.4339 24.7144 41.4248 25.3141C40.67 25.7048 40.009 25.8903 39.1617 25.8848C39.0834 25.8843 39.0052 25.8838 38.9246 25.8832C38.3733 25.873 37.8929 25.8281 37.3874 25.5936C37.3095 25.5593 37.2317 25.525 37.1515 25.4896C36.1255 24.9873 35.3404 24.143 34.924 23.0774C34.861 22.8917 34.8027 22.7064 34.7506 22.5174C33.232 22.6972 31.8676 23.4567 30.8835 24.6268C29.9539 25.8999 29.523 27.2118 29.5313 28.7828C29.5306 28.9541 29.5298 29.1255 29.5291 29.2969C29.5286 29.4789 29.5287 29.661 29.529 29.8431C29.5296 30.2254 29.5282 30.6076 29.5265 30.9899C29.5232 31.8022 29.5221 32.6145 29.5212 33.4269C29.5202 34.3025 29.5188 35.1781 29.5149 36.0537C29.5136 36.3707 29.5128 36.6877 29.5133 37.0047C29.5177 39.9307 29.1372 42.501 27.0163 44.6659C26.0102 45.6515 24.8447 46.3452 23.5006 46.7753C23.3727 46.8174 23.3727 46.8174 23.2421 46.8604C21.0091 47.4641 18.6052 47.0356 16.6235 45.9101C14.6816 44.6777 13.2955 42.7811 12.778 40.535C12.591 39.6699 12.5722 38.8157 12.5658 37.9354C12.5642 37.7891 12.5625 37.6428 12.5607 37.4965C12.5562 37.1151 12.5527 36.7337 12.5494 36.3522C12.5459 35.9615 12.5414 35.5709 12.537 35.1802C12.5285 34.4163 12.5211 33.6524 12.5143 32.8885C12.4353 32.8588 12.3564 32.8291 12.275 32.7985C12.1717 32.7592 12.0683 32.72 11.9619 32.6796C11.8593 32.6408 11.7568 32.602 11.6511 32.562C10.5372 32.1117 9.85372 31.2577 9.37326 30.1941C9.13554 29.5641 9.06148 29.0292 9.0756 28.3622C9.07639 28.2899 9.07719 28.2176 9.078 28.1431C9.08005 27.9671 9.0832 27.7911 9.08659 27.6151C8.98326 27.5879 8.87993 27.5607 8.77348 27.5327C7.78145 27.201 6.87963 26.5364 6.09831 25.8573C6.02534 25.795 5.95238 25.7327 5.87721 25.6685C4.32561 24.312 3.22651 22.6217 2.55522 20.6772C2.53496 20.6198 2.51471 20.5623 2.49385 20.5031C2.01788 19.039 2.01323 17.5628 2.01413 16.0394C2.01414 15.7985 2.01338 15.5576 2.01266 15.3167C2.01098 14.7478 2.01071 14.1789 2.01131 13.61C2.01189 13.0269 2.00987 12.4439 2.00662 11.8608C2.00391 11.3561 2.00293 10.8514 2.00327 10.3467C2.00345 10.047 2.00299 9.74737 2.00081 9.44769C1.99024 7.64544 2.08555 6.31803 3.36237 4.93726C3.90304 4.42244 4.61013 4.01591 5.35124 3.89562C5.65717 3.83149 5.65717 3.83149 5.76425 3.64602C5.82236 3.52268 5.87742 3.39785 5.92939 3.2718C6.05002 3.00651 6.23297 2.84461 6.44987 2.65416C6.51875 2.59253 6.58764 2.5309 6.65861 2.4674C7.15215 2.11487 7.59382 1.99126 8.19669 2.00048ZM7.59245 4.11534C7.40249 4.4359 7.36128 4.57538 7.41667 4.93932C7.49768 5.22287 7.5838 5.28518 7.83415 5.45018C8.16315 5.5704 8.31588 5.57468 8.64713 5.46666C8.92779 5.26945 8.99023 5.14614 9.08109 4.81298C9.08725 4.46208 9.03953 4.33119 8.82292 4.06041C8.54357 3.87418 8.36634 3.83687 8.03259 3.84549C7.82178 3.87744 7.82178 3.87744 7.59245 4.11534ZM18.0514 4.32408C17.9418 4.57871 17.9418 4.57871 17.9635 4.85143C18.106 5.12585 18.234 5.31661 18.4799 5.50511C18.7535 5.57753 18.9234 5.5495 19.194 5.46666C19.4407 5.28966 19.6004 5.15919 19.676 4.85726C19.6995 4.51226 19.6529 4.35324 19.4577 4.06041C19.1649 3.86519 19.0058 3.81858 18.6608 3.84206C18.3589 3.91769 18.2284 4.07735 18.0514 4.32408ZM37.2116 19.6171C36.7172 20.2202 36.4661 20.8237 36.4861 21.6094C36.5782 22.455 37.0034 23.0754 37.6445 23.6123C38.1559 23.9927 38.7264 24.1311 39.3543 24.0837C40.094 23.9702 40.7383 23.6438 41.2051 23.0503C41.2828 22.933 41.3581 22.814 41.4303 22.6932C41.4847 22.6026 41.5391 22.512 41.5951 22.4186C41.8274 21.8121 41.7973 21.0164 41.5567 20.4191C41.1561 19.6681 40.6399 19.2229 39.8483 18.9139C38.9001 18.6336 37.9057 18.9304 37.2116 19.6171ZM10.9323 28.2303C10.8828 28.9977 11.0414 29.6206 11.5201 30.2353C12.04 30.792 12.7589 31.0875 13.5086 31.1582C14.3073 31.0905 14.9381 30.8314 15.5026 30.2518C15.8907 29.7219 16.1331 29.2654 16.1233 28.6039C16.1225 28.5336 16.1217 28.4634 16.1209 28.391C16.1199 28.338 16.1189 28.285 16.1178 28.2303C16.0216 28.2478 16.0216 28.2478 15.9235 28.2657C14.2511 28.5486 12.6041 28.5348 10.9323 28.2303Z"/>
</mask>
<path d="M8.19669 2.00048C8.25844 2.00121 8.32019 2.00193 8.38381 2.00269C9.15804 2.02782 9.68506 2.30446 10.2474 2.82411C10.7657 3.42151 10.9606 4.10731 10.9515 4.8813C10.8888 5.64408 10.538 6.24337 9.98197 6.75756C9.36318 7.27189 8.73909 7.41551 7.94401 7.40026C7.23473 7.29376 6.55732 6.96664 6.10758 6.39913C5.97982 6.20884 5.85971 6.01758 5.74674 5.81823C5.0724 5.99915 4.66988 6.28924 4.30753 6.8839C4.08974 7.26708 3.9781 7.56052 3.97659 8.00261C3.97609 8.09055 3.97558 8.17849 3.97507 8.26909C3.97497 8.36552 3.97487 8.46194 3.97477 8.56129C3.97433 8.66294 3.9739 8.76458 3.97345 8.86931C3.97216 9.20681 3.97156 9.5443 3.97108 9.88179C3.9707 10.0573 3.97032 10.2328 3.96994 10.4083C3.9689 10.8982 3.96824 11.388 3.96793 11.8778C3.96754 12.5084 3.96601 13.139 3.96345 13.7696C3.96154 14.2585 3.96066 14.7475 3.96055 15.2364C3.96046 15.5276 3.95982 15.8188 3.95837 16.11C3.94592 17.8373 3.94592 17.8373 4.2526 19.5292C4.26948 19.5953 4.28636 19.6615 4.30375 19.7296C4.65708 21.0374 5.33258 22.1789 6.1862 23.2206C6.24749 23.2964 6.30878 23.3722 6.37193 23.4503C7.97044 25.3293 10.4179 26.4166 12.849 26.6244C15.33 26.7857 17.8258 25.9809 19.7214 24.3631C19.7905 24.3067 19.8596 24.2503 19.9308 24.1922C21.7985 22.6055 22.8715 20.2898 23.1081 17.8716C23.1798 16.9761 23.1654 16.0763 23.1669 15.1786C23.1672 15.08 23.1674 14.9815 23.1677 14.8799C23.169 14.359 23.1698 13.838 23.1702 13.3171C23.1707 12.7816 23.1728 12.2462 23.1753 11.7107C23.1769 11.2963 23.1774 10.8819 23.1775 10.4675C23.1778 10.2701 23.1785 10.0728 23.1796 9.87546C23.2366 8.03353 23.2366 8.03353 22.4497 6.42591C22.1477 6.14289 21.7339 5.81823 21.3034 5.81823C21.1885 5.97872 21.1885 5.97872 21.0727 6.18077C20.6413 6.84183 20.1338 7.18622 19.3633 7.36421C18.5633 7.47636 17.8356 7.34318 17.1725 6.87291C16.4907 6.25265 16.1583 5.6234 16.0959 4.70311C16.1102 3.93954 16.3835 3.29218 16.9089 2.74205C17.6059 2.11601 18.2764 1.98174 19.1944 2.00494C19.857 2.04822 20.3796 2.3956 20.8639 2.82994C20.959 2.98799 21.0486 3.14939 21.1331 3.31334C21.4388 3.81466 21.7057 3.9214 22.2595 4.06659C23.205 4.34822 23.9565 5.07856 24.4517 5.91161C24.9814 6.93525 25.096 7.87803 25.0954 9.01244C25.0959 9.14339 25.0959 9.14339 25.0963 9.27699C25.0972 9.56385 25.0973 9.85071 25.0974 10.1376C25.0977 10.3391 25.098 10.5407 25.0983 10.7423C25.0989 11.1646 25.099 11.587 25.099 12.0093C25.099 12.5458 25.1002 13.0823 25.1017 13.6188C25.1027 14.0354 25.1028 14.452 25.1028 14.8687C25.1029 15.0661 25.1033 15.2636 25.104 15.4611C25.1069 16.4087 25.0979 17.3491 25.0055 18.2927C24.9989 18.3612 24.9922 18.4296 24.9853 18.5C24.6735 21.3215 23.167 24.0842 20.9793 25.8919C20.3697 26.377 19.7279 26.8011 19.0512 27.1866C18.9929 27.2199 18.9347 27.2532 18.8747 27.2874C18.5736 27.453 18.3057 27.5718 17.9635 27.6151C17.9676 27.7224 17.9717 27.8297 17.9759 27.9402C18.0155 29.4178 17.7396 30.5864 16.7276 31.7185C16.1205 32.2884 15.3299 32.6722 14.5358 32.8885C14.5297 33.7023 14.525 34.5161 14.5221 35.3299C14.5208 35.7079 14.5189 36.0859 14.5159 36.4639C14.513 36.8297 14.5115 37.1956 14.5108 37.5615C14.5103 37.7 14.5094 37.8385 14.5079 37.9769C14.4876 40.017 15.0166 41.7833 16.4145 43.3122C17.6811 44.5267 19.3853 45.1742 21.1276 45.1932C22.9159 45.0965 24.4929 44.4223 25.7858 43.1717C27.111 41.6677 27.557 39.9606 27.5561 37.9996C27.5566 37.8281 27.557 37.6566 27.5575 37.4851C27.558 37.3018 27.5582 37.1185 27.5584 36.9353C27.559 36.5512 27.5604 36.1671 27.5621 35.7831C27.5626 35.651 27.5632 35.519 27.5637 35.3869C27.564 35.3208 27.5643 35.2547 27.5646 35.1866C27.5683 34.2936 27.5712 33.4007 27.5723 32.5077C27.573 31.9038 27.575 31.3 27.5784 30.6961C27.5801 30.3776 27.5812 30.0592 27.5807 29.7406C27.5778 27.1897 27.5778 27.1897 27.9831 25.9452C28.0072 25.8709 28.0314 25.7967 28.0563 25.7201C28.7967 23.6665 30.3411 22.1196 32.2916 21.2028C33.0689 20.8534 33.8875 20.557 34.7506 20.5839C34.7778 20.418 34.7778 20.418 34.8056 20.2488C35.0453 19.1884 35.7312 18.2989 36.6238 17.6999C37.7302 17.0377 38.8791 16.8242 40.1449 17.0737C41.3957 17.3931 42.3282 18.0782 43.0014 19.1721C43.5951 20.2728 43.7083 21.4236 43.482 22.6558C43.1418 23.7778 42.4339 24.7144 41.4248 25.3141C40.67 25.7048 40.009 25.8903 39.1617 25.8848C39.0834 25.8843 39.0052 25.8838 38.9246 25.8832C38.3733 25.873 37.8929 25.8281 37.3874 25.5936C37.3095 25.5593 37.2317 25.525 37.1515 25.4896C36.1255 24.9873 35.3404 24.143 34.924 23.0774C34.861 22.8917 34.8027 22.7064 34.7506 22.5174C33.232 22.6972 31.8676 23.4567 30.8835 24.6268C29.9539 25.8999 29.523 27.2118 29.5313 28.7828C29.5306 28.9541 29.5298 29.1255 29.5291 29.2969C29.5286 29.4789 29.5287 29.661 29.529 29.8431C29.5296 30.2254 29.5282 30.6076 29.5265 30.9899C29.5232 31.8022 29.5221 32.6145 29.5212 33.4269C29.5202 34.3025 29.5188 35.1781 29.5149 36.0537C29.5136 36.3707 29.5128 36.6877 29.5133 37.0047C29.5177 39.9307 29.1372 42.501 27.0163 44.6659C26.0102 45.6515 24.8447 46.3452 23.5006 46.7753C23.3727 46.8174 23.3727 46.8174 23.2421 46.8604C21.0091 47.4641 18.6052 47.0356 16.6235 45.9101C14.6816 44.6777 13.2955 42.7811 12.778 40.535C12.591 39.6699 12.5722 38.8157 12.5658 37.9354C12.5642 37.7891 12.5625 37.6428 12.5607 37.4965C12.5562 37.1151 12.5527 36.7337 12.5494 36.3522C12.5459 35.9615 12.5414 35.5709 12.537 35.1802C12.5285 34.4163 12.5211 33.6524 12.5143 32.8885C12.4353 32.8588 12.3564 32.8291 12.275 32.7985C12.1717 32.7592 12.0683 32.72 11.9619 32.6796C11.8593 32.6408 11.7568 32.602 11.6511 32.562C10.5372 32.1117 9.85372 31.2577 9.37326 30.1941C9.13554 29.5641 9.06148 29.0292 9.0756 28.3622C9.07639 28.2899 9.07719 28.2176 9.078 28.1431C9.08005 27.9671 9.0832 27.7911 9.08659 27.6151C8.98326 27.5879 8.87993 27.5607 8.77348 27.5327C7.78145 27.201 6.87963 26.5364 6.09831 25.8573C6.02534 25.795 5.95238 25.7327 5.87721 25.6685C4.32561 24.312 3.22651 22.6217 2.55522 20.6772C2.53496 20.6198 2.51471 20.5623 2.49385 20.5031C2.01788 19.039 2.01323 17.5628 2.01413 16.0394C2.01414 15.7985 2.01338 15.5576 2.01266 15.3167C2.01098 14.7478 2.01071 14.1789 2.01131 13.61C2.01189 13.0269 2.00987 12.4439 2.00662 11.8608C2.00391 11.3561 2.00293 10.8514 2.00327 10.3467C2.00345 10.047 2.00299 9.74737 2.00081 9.44769C1.99024 7.64544 2.08555 6.31803 3.36237 4.93726C3.90304 4.42244 4.61013 4.01591 5.35124 3.89562C5.65717 3.83149 5.65717 3.83149 5.76425 3.64602C5.82236 3.52268 5.87742 3.39785 5.92939 3.2718C6.05002 3.00651 6.23297 2.84461 6.44987 2.65416C6.51875 2.59253 6.58764 2.5309 6.65861 2.4674C7.15215 2.11487 7.59382 1.99126 8.19669 2.00048ZM7.59245 4.11534C7.40249 4.4359 7.36128 4.57538 7.41667 4.93932C7.49768 5.22287 7.5838 5.28518 7.83415 5.45018C8.16315 5.5704 8.31588 5.57468 8.64713 5.46666C8.92779 5.26945 8.99023 5.14614 9.08109 4.81298C9.08725 4.46208 9.03953 4.33119 8.82292 4.06041C8.54357 3.87418 8.36634 3.83687 8.03259 3.84549C7.82178 3.87744 7.82178 3.87744 7.59245 4.11534ZM18.0514 4.32408C17.9418 4.57871 17.9418 4.57871 17.9635 4.85143C18.106 5.12585 18.234 5.31661 18.4799 5.50511C18.7535 5.57753 18.9234 5.5495 19.194 5.46666C19.4407 5.28966 19.6004 5.15919 19.676 4.85726C19.6995 4.51226 19.6529 4.35324 19.4577 4.06041C19.1649 3.86519 19.0058 3.81858 18.6608 3.84206C18.3589 3.91769 18.2284 4.07735 18.0514 4.32408ZM37.2116 19.6171C36.7172 20.2202 36.4661 20.8237 36.4861 21.6094C36.5782 22.455 37.0034 23.0754 37.6445 23.6123C38.1559 23.9927 38.7264 24.1311 39.3543 24.0837C40.094 23.9702 40.7383 23.6438 41.2051 23.0503C41.2828 22.933 41.3581 22.814 41.4303 22.6932C41.4847 22.6026 41.5391 22.512 41.5951 22.4186C41.8274 21.8121 41.7973 21.0164 41.5567 20.4191C41.1561 19.6681 40.6399 19.2229 39.8483 18.9139C38.9001 18.6336 37.9057 18.9304 37.2116 19.6171ZM10.9323 28.2303C10.8828 28.9977 11.0414 29.6206 11.5201 30.2353C12.04 30.792 12.7589 31.0875 13.5086 31.1582C14.3073 31.0905 14.9381 30.8314 15.5026 30.2518C15.8907 29.7219 16.1331 29.2654 16.1233 28.6039C16.1225 28.5336 16.1217 28.4634 16.1209 28.391C16.1199 28.338 16.1189 28.285 16.1178 28.2303C16.0216 28.2478 16.0216 28.2478 15.9235 28.2657C14.2511 28.5486 12.6041 28.5348 10.9323 28.2303Z" fill="#FF7A7A"/>
<path d="M8.19669 2.00048C8.25844 2.00121 8.32019 2.00193 8.38381 2.00269C9.15804 2.02782 9.68506 2.30446 10.2474 2.82411C10.7657 3.42151 10.9606 4.10731 10.9515 4.8813C10.8888 5.64408 10.538 6.24337 9.98197 6.75756C9.36318 7.27189 8.73909 7.41551 7.94401 7.40026C7.23473 7.29376 6.55732 6.96664 6.10758 6.39913C5.97982 6.20884 5.85971 6.01758 5.74674 5.81823C5.0724 5.99915 4.66988 6.28924 4.30753 6.8839C4.08974 7.26708 3.9781 7.56052 3.97659 8.00261C3.97609 8.09055 3.97558 8.17849 3.97507 8.26909C3.97497 8.36552 3.97487 8.46194 3.97477 8.56129C3.97433 8.66294 3.9739 8.76458 3.97345 8.86931C3.97216 9.20681 3.97156 9.5443 3.97108 9.88179C3.9707 10.0573 3.97032 10.2328 3.96994 10.4083C3.9689 10.8982 3.96824 11.388 3.96793 11.8778C3.96754 12.5084 3.96601 13.139 3.96345 13.7696C3.96154 14.2585 3.96066 14.7475 3.96055 15.2364C3.96046 15.5276 3.95982 15.8188 3.95837 16.11C3.94592 17.8373 3.94592 17.8373 4.2526 19.5292C4.26948 19.5953 4.28636 19.6615 4.30375 19.7296C4.65708 21.0374 5.33258 22.1789 6.1862 23.2206C6.24749 23.2964 6.30878 23.3722 6.37193 23.4503C7.97044 25.3293 10.4179 26.4166 12.849 26.6244C15.33 26.7857 17.8258 25.9809 19.7214 24.3631C19.7905 24.3067 19.8596 24.2503 19.9308 24.1922C21.7985 22.6055 22.8715 20.2898 23.1081 17.8716C23.1798 16.9761 23.1654 16.0763 23.1669 15.1786C23.1672 15.08 23.1674 14.9815 23.1677 14.8799C23.169 14.359 23.1698 13.838 23.1702 13.3171C23.1707 12.7816 23.1728 12.2462 23.1753 11.7107C23.1769 11.2963 23.1774 10.8819 23.1775 10.4675C23.1778 10.2701 23.1785 10.0728 23.1796 9.87546C23.2366 8.03353 23.2366 8.03353 22.4497 6.42591C22.1477 6.14289 21.7339 5.81823 21.3034 5.81823C21.1885 5.97872 21.1885 5.97872 21.0727 6.18077C20.6413 6.84183 20.1338 7.18622 19.3633 7.36421C18.5633 7.47636 17.8356 7.34318 17.1725 6.87291C16.4907 6.25265 16.1583 5.6234 16.0959 4.70311C16.1102 3.93954 16.3835 3.29218 16.9089 2.74205C17.6059 2.11601 18.2764 1.98174 19.1944 2.00494C19.857 2.04822 20.3796 2.3956 20.8639 2.82994C20.959 2.98799 21.0486 3.14939 21.1331 3.31334C21.4388 3.81466 21.7057 3.9214 22.2595 4.06659C23.205 4.34822 23.9565 5.07856 24.4517 5.91161C24.9814 6.93525 25.096 7.87803 25.0954 9.01244C25.0959 9.14339 25.0959 9.14339 25.0963 9.27699C25.0972 9.56385 25.0973 9.85071 25.0974 10.1376C25.0977 10.3391 25.098 10.5407 25.0983 10.7423C25.0989 11.1646 25.099 11.587 25.099 12.0093C25.099 12.5458 25.1002 13.0823 25.1017 13.6188C25.1027 14.0354 25.1028 14.452 25.1028 14.8687C25.1029 15.0661 25.1033 15.2636 25.104 15.4611C25.1069 16.4087 25.0979 17.3491 25.0055 18.2927C24.9989 18.3612 24.9922 18.4296 24.9853 18.5C24.6735 21.3215 23.167 24.0842 20.9793 25.8919C20.3697 26.377 19.7279 26.8011 19.0512 27.1866C18.9929 27.2199 18.9347 27.2532 18.8747 27.2874C18.5736 27.453 18.3057 27.5718 17.9635 27.6151C17.9676 27.7224 17.9717 27.8297 17.9759 27.9402C18.0155 29.4178 17.7396 30.5864 16.7276 31.7185C16.1205 32.2884 15.3299 32.6722 14.5358 32.8885C14.5297 33.7023 14.525 34.5161 14.5221 35.3299C14.5208 35.7079 14.5189 36.0859 14.5159 36.4639C14.513 36.8297 14.5115 37.1956 14.5108 37.5615C14.5103 37.7 14.5094 37.8385 14.5079 37.9769C14.4876 40.017 15.0166 41.7833 16.4145 43.3122C17.6811 44.5267 19.3853 45.1742 21.1276 45.1932C22.9159 45.0965 24.4929 44.4223 25.7858 43.1717C27.111 41.6677 27.557 39.9606 27.5561 37.9996C27.5566 37.8281 27.557 37.6566 27.5575 37.4851C27.558 37.3018 27.5582 37.1185 27.5584 36.9353C27.559 36.5512 27.5604 36.1671 27.5621 35.7831C27.5626 35.651 27.5632 35.519 27.5637 35.3869C27.564 35.3208 27.5643 35.2547 27.5646 35.1866C27.5683 34.2936 27.5712 33.4007 27.5723 32.5077C27.573 31.9038 27.575 31.3 27.5784 30.6961C27.5801 30.3776 27.5812 30.0592 27.5807 29.7406C27.5778 27.1897 27.5778 27.1897 27.9831 25.9452C28.0072 25.8709 28.0314 25.7967 28.0563 25.7201C28.7967 23.6665 30.3411 22.1196 32.2916 21.2028C33.0689 20.8534 33.8875 20.557 34.7506 20.5839C34.7778 20.418 34.7778 20.418 34.8056 20.2488C35.0453 19.1884 35.7312 18.2989 36.6238 17.6999C37.7302 17.0377 38.8791 16.8242 40.1449 17.0737C41.3957 17.3931 42.3282 18.0782 43.0014 19.1721C43.5951 20.2728 43.7083 21.4236 43.482 22.6558C43.1418 23.7778 42.4339 24.7144 41.4248 25.3141C40.67 25.7048 40.009 25.8903 39.1617 25.8848C39.0834 25.8843 39.0052 25.8838 38.9246 25.8832C38.3733 25.873 37.8929 25.8281 37.3874 25.5936C37.3095 25.5593 37.2317 25.525 37.1515 25.4896C36.1255 24.9873 35.3404 24.143 34.924 23.0774C34.861 22.8917 34.8027 22.7064 34.7506 22.5174C33.232 22.6972 31.8676 23.4567 30.8835 24.6268C29.9539 25.8999 29.523 27.2118 29.5313 28.7828C29.5306 28.9541 29.5298 29.1255 29.5291 29.2969C29.5286 29.4789 29.5287 29.661 29.529 29.8431C29.5296 30.2254 29.5282 30.6076 29.5265 30.9899C29.5232 31.8022 29.5221 32.6145 29.5212 33.4269C29.5202 34.3025 29.5188 35.1781 29.5149 36.0537C29.5136 36.3707 29.5128 36.6877 29.5133 37.0047C29.5177 39.9307 29.1372 42.501 27.0163 44.6659C26.0102 45.6515 24.8447 46.3452 23.5006 46.7753C23.3727 46.8174 23.3727 46.8174 23.2421 46.8604C21.0091 47.4641 18.6052 47.0356 16.6235 45.9101C14.6816 44.6777 13.2955 42.7811 12.778 40.535C12.591 39.6699 12.5722 38.8157 12.5658 37.9354C12.5642 37.7891 12.5625 37.6428 12.5607 37.4965C12.5562 37.1151 12.5527 36.7337 12.5494 36.3522C12.5459 35.9615 12.5414 35.5709 12.537 35.1802C12.5285 34.4163 12.5211 33.6524 12.5143 32.8885C12.4353 32.8588 12.3564 32.8291 12.275 32.7985C12.1717 32.7592 12.0683 32.72 11.9619 32.6796C11.8593 32.6408 11.7568 32.602 11.6511 32.562C10.5372 32.1117 9.85372 31.2577 9.37326 30.1941C9.13554 29.5641 9.06148 29.0292 9.0756 28.3622C9.07639 28.2899 9.07719 28.2176 9.078 28.1431C9.08005 27.9671 9.0832 27.7911 9.08659 27.6151C8.98326 27.5879 8.87993 27.5607 8.77348 27.5327C7.78145 27.201 6.87963 26.5364 6.09831 25.8573C6.02534 25.795 5.95238 25.7327 5.87721 25.6685C4.32561 24.312 3.22651 22.6217 2.55522 20.6772C2.53496 20.6198 2.51471 20.5623 2.49385 20.5031C2.01788 19.039 2.01323 17.5628 2.01413 16.0394C2.01414 15.7985 2.01338 15.5576 2.01266 15.3167C2.01098 14.7478 2.01071 14.1789 2.01131 13.61C2.01189 13.0269 2.00987 12.4439 2.00662 11.8608C2.00391 11.3561 2.00293 10.8514 2.00327 10.3467C2.00345 10.047 2.00299 9.74737 2.00081 9.44769C1.99024 7.64544 2.08555 6.31803 3.36237 4.93726C3.90304 4.42244 4.61013 4.01591 5.35124 3.89562C5.65717 3.83149 5.65717 3.83149 5.76425 3.64602C5.82236 3.52268 5.87742 3.39785 5.92939 3.2718C6.05002 3.00651 6.23297 2.84461 6.44987 2.65416C6.51875 2.59253 6.58764 2.5309 6.65861 2.4674C7.15215 2.11487 7.59382 1.99126 8.19669 2.00048ZM7.59245 4.11534C7.40249 4.4359 7.36128 4.57538 7.41667 4.93932C7.49768 5.22287 7.5838 5.28518 7.83415 5.45018C8.16315 5.5704 8.31588 5.57468 8.64713 5.46666C8.92779 5.26945 8.99023 5.14614 9.08109 4.81298C9.08725 4.46208 9.03953 4.33119 8.82292 4.06041C8.54357 3.87418 8.36634 3.83687 8.03259 3.84549C7.82178 3.87744 7.82178 3.87744 7.59245 4.11534ZM18.0514 4.32408C17.9418 4.57871 17.9418 4.57871 17.9635 4.85143C18.106 5.12585 18.234 5.31661 18.4799 5.50511C18.7535 5.57753 18.9234 5.5495 19.194 5.46666C19.4407 5.28966 19.6004 5.15919 19.676 4.85726C19.6995 4.51226 19.6529 4.35324 19.4577 4.06041C19.1649 3.86519 19.0058 3.81858 18.6608 3.84206C18.3589 3.91769 18.2284 4.07735 18.0514 4.32408ZM37.2116 19.6171C36.7172 20.2202 36.4661 20.8237 36.4861 21.6094C36.5782 22.455 37.0034 23.0754 37.6445 23.6123C38.1559 23.9927 38.7264 24.1311 39.3543 24.0837C40.094 23.9702 40.7383 23.6438 41.2051 23.0503C41.2828 22.933 41.3581 22.814 41.4303 22.6932C41.4847 22.6026 41.5391 22.512 41.5951 22.4186C41.8274 21.8121 41.7973 21.0164 41.5567 20.4191C41.1561 19.6681 40.6399 19.2229 39.8483 18.9139C38.9001 18.6336 37.9057 18.9304 37.2116 19.6171ZM10.9323 28.2303C10.8828 28.9977 11.0414 29.6206 11.5201 30.2353C12.04 30.792 12.7589 31.0875 13.5086 31.1582C14.3073 31.0905 14.9381 30.8314 15.5026 30.2518C15.8907 29.7219 16.1331 29.2654 16.1233 28.6039C16.1225 28.5336 16.1217 28.4634 16.1209 28.391C16.1199 28.338 16.1189 28.285 16.1178 28.2303C16.0216 28.2478 16.0216 28.2478 15.9235 28.2657C14.2511 28.5486 12.6041 28.5348 10.9323 28.2303Z" stroke="#FFC0C0" stroke-width="4" mask="url(#path-1-outside-1_10_120)"/>
<path d="M39.5847 20.5838C39.8449 20.8108 39.9885 20.9512 40.0633 21.2869C40.0817 21.6114 40.0336 21.7994 39.8593 22.0725C39.6082 22.3162 39.4596 22.3596 39.1177 22.3746C38.8025 22.3695 38.7157 22.3482 38.4421 22.1658C38.2254 21.8408 38.1394 21.5898 38.1784 21.199C38.3264 20.8918 38.4437 20.7254 38.7332 20.5454C39.0556 20.4779 39.2669 20.493 39.5847 20.5838Z" fill="#FF7878"/>
</svg>
