<svg width="40" height="45" viewBox="0 0 40 45" fill="none" xmlns="http://www.w3.org/2000/svg">
<path d="M15.1775 0.487772C15.2755 0.518842 15.2755 0.518842 15.3754 0.55054C17.1518 1.13491 18.6758 2.08956 19.9729 3.45983C21.64 5.20517 23.8981 5.40982 26.152 5.61035C26.152 5.13192 26.152 4.65349 26.152 4.16056C26.0271 4.16455 25.9022 4.16854 25.7735 4.17264C23.9113 4.16726 22.2214 3.75318 20.8539 2.42082C20.9486 2.13086 20.9486 2.13086 21.1149 2.04516C21.1888 2.01962 21.2627 1.99408 21.3388 1.96776C21.7056 1.82923 22.0415 1.66705 22.382 1.47048C22.9597 1.13762 23.536 0.866663 24.1652 0.650873C24.229 0.628649 24.2928 0.606426 24.3585 0.583528C25.5211 0.203294 26.6613 0.0490014 27.8786 0.0588776C27.9421 0.0591715 28.0056 0.0594655 28.071 0.0597684C29.1403 0.0670508 30.143 0.16331 31.1662 0.487772C31.231 0.507972 31.2958 0.528171 31.3626 0.548983C34.3363 1.50823 36.733 3.73031 38.1967 6.51042C41.8092 13.6267 39.2687 24.101 36.8781 32.9328C36.744 33.363 36.6054 33.7916 36.4642 34.2195C36.4303 34.323 36.3965 34.4266 36.3616 34.5333C35.1801 38.1166 33.3779 42.6903 29.954 44.6141C29.1788 44.989 28.3955 45.1026 27.5526 44.8973C26.832 44.5638 26.4673 43.619 26.1985 42.9136C25.9622 42.2705 25.7998 41.625 25.6553 40.9549C25.6281 40.8328 25.6009 40.7107 25.5729 40.5849C25.4808 40.1709 25.3905 39.7565 25.3005 39.342C24.4072 33.4881 24.4072 33.4881 21.3743 28.7646C20.7211 28.357 20.0786 28.2301 19.3254 28.3584C18.4243 28.5983 17.7349 29.3638 17.2378 30.1393C15.7199 32.9442 15.1834 36.2111 14.5263 39.3096C14.2894 40.423 14.0498 41.5312 13.7052 42.6161C13.6809 42.6942 13.6566 42.7723 13.6316 42.8527C13.3724 43.6232 12.9446 44.3164 12.3393 44.8512C11.5143 45.1321 10.638 44.9931 9.86728 44.6198C6.21816 42.5351 4.49953 37.7456 3.25695 33.9295C3.22533 33.8341 3.19372 33.7387 3.16114 33.6405C1.72673 29.2784 0.795338 24.6825 0.324116 20.1082C0.313033 20.0022 0.30195 19.8961 0.290532 19.7869C-0.204715 14.8011 -0.435143 8.86325 2.75952 4.71254C3.10295 4.29128 3.457 3.88335 3.82459 3.484C3.87435 3.42693 3.92411 3.36987 3.97537 3.31108C4.92577 2.26583 6.15649 1.54466 7.41968 0.971034C7.52054 0.924437 7.62139 0.87784 7.72531 0.829831C10.0055 -0.144489 12.8185 -0.263882 15.1775 0.487772ZM6.27441 5.61412C6.18303 5.70941 6.09174 5.8048 6.00057 5.90031C5.92288 5.9788 5.8452 6.05729 5.76516 6.13816C4.37361 7.61626 3.54233 9.67249 3.35156 11.6994C3.82933 11.7996 4.28573 11.806 4.77067 11.7961C4.78567 11.7211 4.80067 11.6461 4.81612 11.5688C5.27544 9.3963 6.18425 7.27093 8.04743 5.987C9.28884 5.18248 10.4162 4.88269 11.8662 4.74048C11.8662 4.23015 11.8662 3.71983 11.8662 3.19404C9.74723 3.19404 7.76296 4.10247 6.27441 5.61412Z" fill="white"/>
</svg>
